<svg xmlns="http://www.w3.org/2000/svg" viewBox="0 0 475 475"><defs><style>.cls-1{fill:#a1e0ed;}.cls-2{fill:#c7ecfa;}.cls-3{fill:#d6f3ff;opacity:0.88;}</style></defs><g id="Layer_2" data-name="Layer 2"><g id="hover_bloc"><rect class="cls-1" width="475" height="475" rx="48.41"/><path class="cls-2" d="M124.66,195H452V399a47,47,0,0,1-47,47H99V220.66A25.66,25.66,0,0,1,124.66,195Z"/><path id="_2" data-name="2" class="cls-1" d="M344,52H453V315c4-35.25-22.63-64.75-52-66-30.88-1.32-61,28.77-57,66Z"/><path class="cls-1" d="M33,9H345V309a72,72,0,0,1-72,72H6V36A27,27,0,0,1,33,9Z"/><path class="cls-3" d="M264.78,159H484.14A26.86,26.86,0,0,1,511,185.86v0a39.78,39.78,0,0,1-39.78,39.78H251.86A26.86,26.86,0,0,1,225,198.78v0A39.78,39.78,0,0,1,264.78,159Z" transform="translate(175.68 560.32) rotate(-90)"/><path class="cls-1" d="M5.5,377.51h263c-20.42-.48-33.61,22.38-33,38.12.59,15.06,14.21,33.4,33,31.19H5.5Z"/><rect class="cls-2" x="110" y="381" width="111" height="66" rx="31.78" transform="translate(331.01 828) rotate(180)"/></g></g></svg>