<svg xmlns="http://www.w3.org/2000/svg" xmlns:xlink="http://www.w3.org/1999/xlink" width="674" height="684.936" viewBox="0 0 674 684.936">
  <defs>
    <style>
      .cls-1 {
        fill: #c8d6fa;
      }

      .cls-10, .cls-11, .cls-12, .cls-13, .cls-14, .cls-15, .cls-16, .cls-17, .cls-18, .cls-19, .cls-2, .cls-20, .cls-21, .cls-22, .cls-23, .cls-24, .cls-25, .cls-26, .cls-27, .cls-28, .cls-29, .cls-3, .cls-30, .cls-31, .cls-32, .cls-33, .cls-34, .cls-35, .cls-36, .cls-37, .cls-38, .cls-39, .cls-4, .cls-40, .cls-41, .cls-42, .cls-43, .cls-44, .cls-45, .cls-46, .cls-47, .cls-48, .cls-49, .cls-5, .cls-50, .cls-51, .cls-52, .cls-53, .cls-54, .cls-55, .cls-56, .cls-6, .cls-7, .cls-8, .cls-9 {
        fill-rule: evenodd;
      }

      .cls-2 {
        fill: url(#linear-gradient);
      }

      .cls-3 {
        fill: #22043d;
      }

      .cls-4 {
        fill: url(#linear-gradient-2);
      }

      .cls-5 {
        fill: #ffa698;
      }

      .cls-6 {
        fill: url(#linear-gradient-3);
      }

      .cls-7 {
        fill: #59caaf;
      }

      .cls-39, .cls-7 {
        opacity: 0.35;
      }

      .cls-10, .cls-20, .cls-24, .cls-26, .cls-28, .cls-30, .cls-32, .cls-35, .cls-39, .cls-46, .cls-7 {
        mix-blend-mode: multiply;
        isolation: isolate;
      }

      .cls-8 {
        fill: #161f69;
      }

      .cls-9 {
        fill: url(#linear-gradient-4);
      }

      .cls-10 {
        fill: #1e2353;
      }

      .cls-10, .cls-46 {
        opacity: 0.3;
      }

      .cls-11 {
        fill: url(#linear-gradient-5);
      }

      .cls-12 {
        fill: url(#linear-gradient-6);
      }

      .cls-13 {
        fill: url(#linear-gradient-7);
      }

      .cls-14 {
        fill: url(#linear-gradient-8);
      }

      .cls-15 {
        fill: url(#linear-gradient-9);
      }

      .cls-16 {
        fill: url(#linear-gradient-10);
      }

      .cls-17 {
        fill: #ff8f7f;
      }

      .cls-18 {
        fill: #273087;
      }

      .cls-19 {
        fill: url(#linear-gradient-11);
      }

      .cls-20, .cls-24, .cls-26, .cls-28, .cls-30, .cls-32, .cls-34, .cls-35, .cls-37, .cls-38 {
        opacity: 0.5;
      }

      .cls-20 {
        fill: url(#linear-gradient-12);
      }

      .cls-21 {
        fill: #d0e7ff;
      }

      .cls-22 {
        fill: url(#linear-gradient-13);
      }

      .cls-23 {
        fill: url(#linear-gradient-14);
      }

      .cls-24 {
        fill: url(#linear-gradient-15);
      }

      .cls-25 {
        fill: #fff;
      }

      .cls-26 {
        fill: url(#linear-gradient-16);
      }

      .cls-27 {
        fill: url(#linear-gradient-17);
      }

      .cls-28 {
        fill: url(#linear-gradient-18);
      }

      .cls-29 {
        fill: url(#linear-gradient-19);
      }

      .cls-30 {
        fill: url(#linear-gradient-20);
      }

      .cls-31 {
        fill: url(#linear-gradient-21);
      }

      .cls-32 {
        fill: url(#linear-gradient-22);
      }

      .cls-33 {
        fill: url(#linear-gradient-23);
      }

      .cls-34 {
        fill: #f2f4ff;
      }

      .cls-35 {
        fill: url(#linear-gradient-24);
      }

      .cls-36 {
        fill: url(#linear-gradient-25);
      }

      .cls-37 {
        fill: #6d6afd;
      }

      .cls-38 {
        fill: #44a7f7;
      }

      .cls-39 {
        fill: #0960ac;
      }

      .cls-40 {
        fill: #ff9483;
      }

      .cls-41 {
        fill: url(#linear-gradient-26);
      }

      .cls-42 {
        fill: url(#linear-gradient-27);
      }

      .cls-43 {
        fill: #ffa495;
      }

      .cls-44 {
        fill: url(#linear-gradient-28);
      }

      .cls-45 {
        fill: #4c57b7;
      }

      .cls-46 {
        fill: #060921;
      }

      .cls-47 {
        fill: url(#linear-gradient-29);
      }

      .cls-48 {
        fill: url(#linear-gradient-30);
      }

      .cls-49 {
        fill: #e7a376;
      }

      .cls-50 {
        fill: url(#linear-gradient-31);
      }

      .cls-51 {
        fill: url(#linear-gradient-32);
      }

      .cls-52 {
        fill: #ffb49c;
      }

      .cls-53 {
        fill: #562e65;
      }

      .cls-54 {
        fill: url(#linear-gradient-33);
      }

      .cls-55 {
        fill: #0ab7e4;
      }

      .cls-56 {
        fill: url(#linear-gradient-34);
      }
    </style>
    <linearGradient id="linear-gradient" x1="0.624" y1="0.283" x2="0.445" y2="0.616" gradientUnits="objectBoundingBox">
      <stop offset="0" stop-color="#5a2d68"/>
      <stop offset="1" stop-color="#22043d"/>
    </linearGradient>
    <linearGradient id="linear-gradient-2" x1="0.466" y1="0.886" x2="0.512" y2="0.32" gradientUnits="objectBoundingBox">
      <stop offset="0" stop-color="#ff8a78"/>
      <stop offset="1" stop-color="#ffa799"/>
    </linearGradient>
    <linearGradient id="linear-gradient-3" x1="0.278" y1="0.874" x2="0.744" y2="0.155" gradientUnits="objectBoundingBox">
      <stop offset="0" stop-color="#965cf2"/>
      <stop offset="1" stop-color="#ff8adc"/>
    </linearGradient>
    <linearGradient id="linear-gradient-4" x1="0.213" y1="0.187" x2="1.068" y2="0.765" gradientUnits="objectBoundingBox">
      <stop offset="0" stop-color="#3e4795"/>
      <stop offset="1" stop-color="#273088"/>
    </linearGradient>
    <linearGradient id="linear-gradient-5" x1="-0.078" y1="0.231" x2="1.225" y2="0.707" xlink:href="#linear-gradient-4"/>
    <linearGradient id="linear-gradient-6" x1="0.385" y1="0.834" x2="0.554" y2="0.199" xlink:href="#linear-gradient-3"/>
    <linearGradient id="linear-gradient-7" x1="0.556" y1="0.647" x2="0.474" y2="0.474" xlink:href="#linear-gradient-2"/>
    <linearGradient id="linear-gradient-8" x1="0.628" y1="0.744" x2="0.359" y2="0.067" xlink:href="#linear-gradient-3"/>
    <linearGradient id="linear-gradient-9" x1="0.522" y1="0.533" x2="0.594" y2="0.852" xlink:href="#linear-gradient-2"/>
    <linearGradient id="linear-gradient-10" x1="0.088" y1="0.373" x2="0.591" y2="0.782" gradientUnits="objectBoundingBox">
      <stop offset="0" stop-color="#ffb89e"/>
      <stop offset="1" stop-color="#ffa799"/>
    </linearGradient>
    <linearGradient id="linear-gradient-11" x1="0.626" y1="0.743" x2="0.262" y2="0.042" xlink:href="#linear-gradient-3"/>
    <linearGradient id="linear-gradient-12" x1="0.606" y1="0.069" x2="0.437" y2="0.755" gradientUnits="objectBoundingBox">
      <stop offset="0" stop-color="#fd90da"/>
      <stop offset="1" stop-color="#8e6dfd"/>
    </linearGradient>
    <linearGradient id="linear-gradient-13" x1="0.543" y1="0.646" x2="0.47" y2="0.399" gradientUnits="objectBoundingBox">
      <stop offset="0" stop-color="#1c8ef4"/>
      <stop offset="1" stop-color="#00cfdd"/>
    </linearGradient>
    <linearGradient id="linear-gradient-14" x1="0.511" y1="0.538" x2="0.49" y2="0.467" xlink:href="#linear-gradient-13"/>
    <linearGradient id="linear-gradient-15" x1="0.599" y1="0.086" x2="0.431" y2="0.763" xlink:href="#linear-gradient-12"/>
    <linearGradient id="linear-gradient-16" x1="0.768" y1="-0.119" x2="0.463" y2="0.687" xlink:href="#linear-gradient-12"/>
    <linearGradient id="linear-gradient-17" x1="0.559" y1="0.675" x2="0.412" y2="0.242" gradientUnits="objectBoundingBox">
      <stop offset="0" stop-color="#6d6afe"/>
      <stop offset="1" stop-color="#3fb0f7"/>
    </linearGradient>
    <linearGradient id="linear-gradient-18" x1="0.649" y1="0.655" x2="0.187" y2="0.174" xlink:href="#linear-gradient-3"/>
    <linearGradient id="linear-gradient-19" x1="0.655" y1="0.734" x2="0.408" y2="0.362" xlink:href="#linear-gradient-13"/>
    <linearGradient id="linear-gradient-20" x1="0.596" y1="0.686" x2="0.303" y2="0.121" xlink:href="#linear-gradient-3"/>
    <linearGradient id="linear-gradient-21" x1="0.584" y1="0.783" x2="0.452" y2="0.339" xlink:href="#linear-gradient-13"/>
    <linearGradient id="linear-gradient-22" x1="0.753" y1="-0.198" x2="0.451" y2="0.6" xlink:href="#linear-gradient-12"/>
    <linearGradient id="linear-gradient-23" x1="0.443" y1="0.342" x2="0.559" y2="0.663" gradientUnits="objectBoundingBox">
      <stop offset="0" stop-color="#a77ef7"/>
      <stop offset="1" stop-color="#5e65d6"/>
    </linearGradient>
    <linearGradient id="linear-gradient-24" x1="0.778" y1="-0.186" x2="0.474" y2="0.619" xlink:href="#linear-gradient-12"/>
    <linearGradient id="linear-gradient-25" x1="0.397" y1="0.421" x2="0.751" y2="0.691" xlink:href="#linear-gradient-17"/>
    <linearGradient id="linear-gradient-26" x1="0.57" y1="0.634" x2="0.418" y2="0.397" xlink:href="#linear-gradient-13"/>
    <linearGradient id="linear-gradient-27" x1="0.423" y1="0.805" x2="0.573" y2="0.151" xlink:href="#linear-gradient-13"/>
    <linearGradient id="linear-gradient-28" x1="0.704" y1="0.221" x2="0.253" y2="0.779" xlink:href="#linear-gradient-4"/>
    <linearGradient id="linear-gradient-29" x1="0.851" y1="0.22" x2="-0.056" y2="0.742" xlink:href="#linear-gradient-4"/>
    <linearGradient id="linear-gradient-30" x1="0.447" y1="0.939" x2="0.489" y2="0.402" xlink:href="#linear-gradient-13"/>
    <linearGradient id="linear-gradient-31" x1="0.68" y1="0.284" x2="0.367" y2="0.643" xlink:href="#linear-gradient-2"/>
    <linearGradient id="linear-gradient-32" x1="0.611" y1="0.315" x2="0.437" y2="0.79" xlink:href="#linear-gradient-10"/>
    <linearGradient id="linear-gradient-33" x1="0.988" y1="0.187" x2="0.331" y2="0.82" gradientUnits="objectBoundingBox">
      <stop offset="0" stop-color="#8a4791"/>
      <stop offset="1" stop-color="#562e65"/>
    </linearGradient>
    <linearGradient id="linear-gradient-34" x1="0.577" y1="0.707" x2="0.335" y2="0.11" xlink:href="#linear-gradient-13"/>
  </defs>
  <g id="Group_148" data-name="Group 148" transform="translate(-278 -2202)">
    <path id="blob_4_" data-name="blob (4)" class="cls-1" d="M503.058,47.016c66.669,77.255,111.4,200.545,83.444,284.149C558.113,414.24,456.6,457.1,364.128,504.723s-175.49,100.008-258.073,78.842C23.9,561.871-56.962,466.625-75.027,357.093s27.1-233.352,93.337-310.077C84.978-30.239,172.723-60.4,260.9-60.4,348.643-59.871,436.388-29.71,503.058,47.016Z" transform="translate(357.031 2264.215)"/>
    <g id="Group_68" data-name="Group 68" transform="translate(325 2202)">
      <g id="Group_67" data-name="Group 67" transform="translate(0 0)">
        <g id="Group_34" data-name="Group 34" transform="translate(432.202 236.299)">
          <g id="Group_23" data-name="Group 23" transform="translate(66.062)">
            <path id="Path_3" data-name="Path 3" class="cls-2" d="M223.849,765.52c-5.14-.8-9.2,2.74-11.262,7.464a27.879,27.879,0,0,0-1.259,16.425c3.351,12.2-2.552,17.509-4.723,23.191a24.788,24.788,0,0,0-1.253,9.4c.145,4.367,2.663,6.617,4.772,10.527a34.5,34.5,0,0,0,3.075,10.813c5.784,11.569,25.241,17.154,43.919,16.3,14.946-.683,29.394-5.974,35.934-12.052,7.179-6.672,8.106-23.609-3.951-25.334-2.808-.4-6.079-1.013-8.477-3.919-1.649-2-.055-7.264.341-14.278.384-6.791-1.167-13.936-11.037-16.318-3.782-.913-7.466-1.289-10.621-3.36-6.894-4.525-4.371-12.93-11.848-17.878-4.515-2.987-11.78-3.637-19.715-1.434C226.46,765.213,225.162,765.375,223.849,765.52Z" transform="translate(-205.331 -763.758)"/>
            <path id="Path_4" data-name="Path 4" class="cls-3" d="M272.292,781.995c-.428,3.315.786,6.2,2.756,8.981,4.595,6.485,7.01,5.978,9.523,14.238,4.134-2.759,6.972-3.18,8.165-.47,1.917,4.357.708,6.933,1.154,11.441.726,7.327,9.483-2.716,16.35,2.9,6.751,5.52,2.119,9.4,4.726,17.209.976,2.925,1.734,6.77,4.464,8.064,8.491,4.021,11.743,14.142-3.374,19.165-9.364,3.113-22.964,2.334-34.327-1.54-15-5.114-24.255-27.245-20.426-37.758,1.584-4.351,5.863-7.6,5.885-11C267.263,801.545,265.008,794.053,272.292,781.995Z" transform="translate(-258.236 -773.84)"/>
          </g>
          <g id="Group_25" data-name="Group 25" transform="translate(0 43.247)">
            <g id="Group_24" data-name="Group 24" transform="translate(0 21.515)">
              <path id="Path_5" data-name="Path 5" class="cls-4" d="M505.135,909.331c-1.368,1.979,1.207,3.352,2.361,3.414,1.845.24,4.475-.7,5.127.532.733,1.383,9.367-1.469,9.274-1.555a15.687,15.687,0,0,0-7.375-3.132C509,908.955,510.609,910.2,505.135,909.331Z" transform="translate(-496.718 -908.59)"/>
              <path id="Path_6" data-name="Path 6" class="cls-5" d="M447.044,922.027c7.922,2.239,18.745,9.976,26.283,11.679,2.38.538,6.1,1.581,7.972-.443,9.692-10.474-3.782-7.03-4.918-10.988-6.9-5.13-17.688-2.708-26.519-7.463a16.547,16.547,0,0,0-1.721-1.014c-3.463-1.726-5.4-1.583-11.412,1.437a7.008,7.008,0,0,1-4.181.722l-6.048-.777c-1.855-.068-3.036.374-3.324.982-.321.676.342,4.5,1.425,6l0,.007c.231.7,1.6,1.24,3.757,1.27l8.84,2.708.413-.234C442.88,922.924,445.126,921.933,447.044,922.027Z" transform="translate(-423.093 -910.855)"/>
            </g>
            <path id="Path_7" data-name="Path 7" class="cls-6" d="M410.83,905.325c7.141-6.661,17.273-16.341,20.9-23.99,2.355-4.973,2.795-18.931-4.8-20.695-2.543-1.6-6.407,8.793-9.012,12.99A184.183,184.183,0,0,1,404.2,892.748c-5.868-3.807-13.962-4.183-21.584-6.072a7.528,7.528,0,0,0-3.507-.1,11.83,11.83,0,0,1-2.652-.925c-.864.236-3.723,5.177-3.233,8.09.607.172,1.951.584,2.585.808.9.318,1.409,1.18,2.3,1.661,3.033,1.634,16.657,8.408,23.443,9.941,2.583.583,6.74,1.928,8.773-.269C410.5,905.692,410.669,905.507,410.83,905.325Z" transform="translate(-349.228 -860.474)"/>
            <path id="Path_8" data-name="Path 8" class="cls-7" d="M379.818,906.993c7.141-6.661,17.273-16.341,20.9-23.99,2.035-4.3,2.638-15.3-2.133-19.349-2.487-.258-3.916-.322-5.1.67-1.485,1.241-2.081,4.32-4.235,8.873-3.257,6.889-8.205,10.906-8.6,19.01-.293,5.981-3.021,13.035-7.475,16.222,2.242.46,4.718.664,6.146-.879C379.488,907.36,379.657,907.175,379.818,906.993Z" transform="translate(-318.217 -862.142)"/>
          </g>
          <path id="Path_9" data-name="Path 9" class="cls-7" d="M197.571,1384.26l61.243-34.88c6.677-3.051,16.232-5.479,23.035-1.939,6.2,3.226,16.408,9.827,20.922,12.4,3.429,1.956,15.333,9.087,7.919,13.119-21.809,11.859-43.393,25.2-65.54,37.244-4.189,2.278-10.315,3.1-16.748,2.567a44.34,44.34,0,0,1-18.139-5.4q-5.521-3.211-10.861-6.321c-4.8-2.8-7.351-6.1-7.6-9.163C191.553,1388.9,193.473,1386.131,197.571,1384.26Z" transform="translate(-147.953 -1085.476)"/>
          <g id="Group_30" data-name="Group 30" transform="translate(66.772 113.24)">
            <g id="Group_27" data-name="Group 27" transform="translate(0)">
              <g id="Group_26" data-name="Group 26" transform="translate(30.872 135.666)">
                <path id="Path_10" data-name="Path 10" class="cls-5" d="M313.747,1320.4a6.765,6.765,0,0,0,.758,3.786c3.551,5.157-.679,4.722-.492,12.081.017.676-2.989,12.3-2.989,12.3s-7.082,1.715-7.61,1.623-4.83-1.755-4.83-1.755c.364-.629.845-2.165,1.141-2.742,2.039-3.973,3.118-8.792,3.9-13.631.52-3.2,1.5-8.168.838-11.527Z" transform="translate(-296.205 -1320.404)"/>
                <path id="Path_11" data-name="Path 11" class="cls-8" d="M296.136,1352.49a31.626,31.626,0,0,0-1.99,4.688,2.216,2.216,0,0,0,.1,1.9c1.619,2.332,10.248-1.53,13.179-3.947,1.894-1.562,1.992-3.48,2.5-5.81.768-3.5.891-3.89,1.857-7.478l.624,9.85.792.517a109.532,109.532,0,0,1,1.643-12.665c.293-1.354.765-2.893.85-3.645a7.79,7.79,0,0,0-3.605-8.014c.651,2.728-1.766,7.059-2.843,12.565C307.937,1347.115,302.049,1352.532,296.136,1352.49Z" transform="translate(-293.985 -1324.54)"/>
              </g>
              <path id="Path_12" data-name="Path 12" class="cls-9" d="M304.467,1017.005c.671,3.024-2.42,13.468-1.63,17.484.753,13.223,3.075,24.411,11.985,50.853,0,.3,8.139,16.47,8.684,18.163,5.547,17.25,12.461,35.978,18.34,53.405,2.178,1.684,8.768,1.161,9.613-2.939-1.815-17.408.165-34.573-2.82-46.484-2.276-9.076-5.258-13.215-10.135-19.941-1.5-17.111-2.58-51.431-6.473-64.587Z" transform="translate(-302.707 -1017.005)"/>
              <path id="Path_13" data-name="Path 13" class="cls-10" d="M302.707,1017.005c.671,3.024,2.665,8.625,3.455,12.641,2.484,6.086,7.719,14.417,11.252,21.417,1.058,8.486.762,19.764,6.06,35.488l4.8,36.355c3.946,11.385,8.089,22.955,11.815,34,2.178,1.684,8.768,1.161,9.613-2.939-1.815-17.408.165-34.573-2.82-46.484-2.276-9.076-5.258-13.215-10.135-19.941-1.5-17.111-2.58-51.431-6.473-64.587Z" transform="translate(-300.947 -1017.005)"/>
            </g>
            <g id="Group_29" data-name="Group 29" transform="translate(5.239 7.736)">
              <g id="Group_28" data-name="Group 28" transform="translate(20.02 144.735)">
                <path id="Path_14" data-name="Path 14" class="cls-5" d="M331.472,1358.823c-.167,1.608.574,3.233.762,4.837a56.124,56.124,0,0,1,.527,8.558,76.153,76.153,0,0,1-1.906,15.385c-.491,2.14-1.445,3.058-2.087,5.99l-12.62,2.061c1.241-4.776,2.952-14.445,4.241-22.537l2.411-15.13Z" transform="translate(-315.294 -1357.986)"/>
                <path id="Path_15" data-name="Path 15" class="cls-8" d="M330.689,1368.785c.73,2.532,1.565,3.884,1.674,7.34s-1.486,8.857-1.353,13.135l.212,6.791c.124,3.955-.882,6.7-5.375,9.969-4.073,2.964-8.04,4.177-10.2,3.126-1.59-.776-2.858-3.575-.423-10.961,2.029-6.153,2.551-12.165,3.744-18.84a67.114,67.114,0,0,1-2.159,15.178c-.443,1.8-.7,4.8,1.428,5.106,8.817,1.26,9.261-1.11,9.988-3.832C330.169,1388.531,331.59,1375.6,330.689,1368.785Z" transform="translate(-313.865 -1363.956)"/>
              </g>
              <path id="Path_16" data-name="Path 16" class="cls-11" d="M330.325,1037.013c9.8,12.265,10.044,19.065,7.92,33.8-1.421,9.856-4.313,21.812-5.034,39.129.848,8.934,2.448,18.937,1.23,32.814-.9,10.211-3.766,27.729-5.931,40.111-2.036,3.827-11.661,2.161-13.234.19.454-17.746.175-29.915-.674-44.247-.825-13.942-2.487-26.874-3.532-40.625-.864-11.379-4.318-26.852-4.775-39.144-1.834-5.794-19.184-24.985-15.569-24.737Z" transform="translate(-290.232 -1034.305)"/>
            </g>
          </g>
          <g id="Group_31" data-name="Group 31" transform="translate(64.905 42.797)">
            <path id="Path_17" data-name="Path 17" class="cls-12" d="M341.453,912.758c-4.4,10.181,3.081,15.815.388,22.828l.832,4.748c-8.03,5.765-36.747,6.195-43.946-5.234l-.15-5.7c-1.24-2.729-.423-9.627-.06-11.446,1.156-5.787.616-8.858,1.248-15.55.16-1.692.477-2.756.633-4.471-6.394-4.779-5.991-14.023-2.2-19.559a48.69,48.69,0,0,0,4.973-8.782,39.77,39.77,0,0,1,1.107-5.03,8.322,8.322,0,0,1,1.34-2.748c1.824-2.606,4.776-2.918,10.8-1.535,11.944,2.742,24.245,8.943,29.734,14.79,3.993,4.253,3.835,8.972,1.544,19.172A109.249,109.249,0,0,1,341.453,912.758Z" transform="translate(-295.447 -859.468)"/>
            <path id="Path_18" data-name="Path 18" class="cls-7" d="M342.212,939.889c-4.4,10.18,2.9,16,.206,23.01l.832,4.688c-8.03,6.249-36.747,5.953-43.946-5.477l.152-4.974c0-.2,14.1,12.505,30.148,5.442,3.486-1.535,6.642-9.163,2.129-23.731-.429-1.386-5.544-1.482-12.789-6.817,5.348,2.267,15.432,5.375,15.929-8.232.223-6.084,1.117-10.657,4.232-14.887,1.509-2.05,10.362,8.707,9.014,13.865A129.134,129.134,0,0,1,342.212,939.889Z" transform="translate(-296.121 -886.66)"/>
          </g>
          <g id="Group_32" data-name="Group 32" transform="translate(96.757 56.936)">
            <path id="Path_19" data-name="Path 19" class="cls-13" d="M308.6,1028.959c-1.461.885-4.122,1.745-5.191,2.384-.553.331-4.525,2.8-6.757,4.3-2.389,1.6-3.063,3.92-4.488,6.493a16.179,16.179,0,0,0-1.607,4.665c-.152,1.085,2.6,3.171,3.775,2.911,2.66-.588,5.375-3.854,6.077-4.218,5.959-3.09,8.811-3.395,10.965-5.853.92-1.049,1.482-4.12,3.38-6.878l-3.653-3.307Z" transform="translate(-290.55 -967.31)"/>
            <path id="Path_20" data-name="Path 20" class="cls-14" d="M250.351,891.8c8.85,5.576,18.63,20.953,27.393,34.638a6.368,6.368,0,0,1,.371,6.8,16.778,16.778,0,0,1-1.723,3.1A85.03,85.03,0,0,1,259.26,955.48a6.671,6.671,0,0,1-2.593,1.075c-.559.462-1.341,1.3-1.937,1.779.739-.952-3.689-5.724-5.7-5.406.516-.639,1.042-1.332,1.578-2.067a6.033,6.033,0,0,1,.356-2.262c2.9-6.591,6.587-13.22,11.186-18.259-7.983-8.635-12.555-10.727-19.993-19.786C233.126,899.551,244.484,888.1,250.351,891.8Z" transform="translate(-231.577 -891.089)"/>
          </g>
          <g id="Group_33" data-name="Group 33" transform="translate(74.543 12.87)">
            <path id="Path_21" data-name="Path 21" class="cls-5" d="M353.83,842.311a31.338,31.338,0,0,0,1.193,15.345c-4.306,3.986-11.963,2.293-13.743-1.32.377-2.337.814-4.483,1.066-6.882Z" transform="translate(-331.291 -820.056)"/>
            <path id="Path_22" data-name="Path 22" class="cls-15" d="M356.142,842.311a30.048,30.048,0,0,0-.385,7.425c-1.263,5.106-10.814,8.552-11.809,4.493.271-1.569.535-3.111.711-4.775Z" transform="translate(-333.603 -820.056)"/>
            <path id="Path_23" data-name="Path 23" class="cls-5" d="M344.3,792.54a17.061,17.061,0,0,0-2.795,11.683,5.021,5.021,0,0,1-.4,2.791c-2.008,4.532-1.828,5.937-.833,9.568.967,3.531.9,5.377,2.106,6.59a7.029,7.029,0,0,0,4.655,1.63c3.214.2,8.731-1.917,11.939-3.671,2.378-1.3,2.286-2.189,3.29-4.444,3.356-2.919,1.182-5.05.058-5.268-3.225-.626-3.747,3.089-5.657,3.911C356.977,808.8,344.537,797.781,344.3,792.54Z" transform="translate(-339.547 -792.54)"/>
            <path id="Path_24" data-name="Path 24" class="cls-16" d="M367.765,798.387a16.777,16.777,0,0,0-1.368,9.068,5.019,5.019,0,0,1-.4,2.791c-2.008,4.531-1.828,5.937-.833,9.568.434,1.584.66,2.828.886,3.828a3.011,3.011,0,0,0,3.751,1.085c1.342-.6,2.661-2.184,2.994-4.829.236-1.879,4.086-3.117,4.88-5.027.658-1.583-1.119-3.351-2.2-4.263C371.707,807.416,369.357,803.083,367.765,798.387Z" transform="translate(-364.441 -795.772)"/>
            <path id="Path_25" data-name="Path 25" class="cls-17" d="M356.112,792.54c1.805,8.017,12.274,14.083,12.362,22.79C365.611,806.282,355.455,800.089,356.112,792.54Z" transform="translate(-351.361 -792.54)"/>
          </g>
        </g>
        <g id="Group_54" data-name="Group 54" transform="translate(129.686)">
          <path id="Path_26" data-name="Path 26" class="cls-7" d="M523.343,1417.818,713,1312.168c5.953-2.72,14.7-5.286,20.54-1.729l14.94,9.1c3,1.831,12.888,7.909,6.278,11.5-19.448,10.574-172.954,97.212-192.7,107.955-3.735,2.031-9.2,2.765-14.934,2.289-5.71-.474-11.64-2.019-16.175-4.817l-5.968-3.68c-4.218-2.6-6.555-5.444-6.78-8.17C517.977,1421.956,519.688,1419.487,523.343,1417.818Z" transform="translate(-435.298 -828.728)"/>
          <g id="Group_53" data-name="Group 53" transform="translate(0)">
            <g id="Group_35" data-name="Group 35" transform="translate(22.588 9.445)">
              <path id="Path_27" data-name="Path 27" class="cls-18" d="M890.137,258.463a13.443,13.443,0,0,1,11.435-1.278l11.874,4.64c-1.985-.774-210.753,122.2-209.181,132.924l73.093,453.859-11.872-4.634c-5.029-1.98-7.669-7.217-8.406-12.307L692.391,390.113a.334.334,0,0,1-.008-.049c-1.053-7.426,1.179-15.156,5.263-21.36a24.859,24.859,0,0,1,8.641-8.333Z" transform="translate(-692.124 -256.429)"/>
              <path id="Path_28" data-name="Path 28" class="cls-19" d="M542.225,370.733,726.072,268.825c9.321-5.166,18.2-.207,19.845,11.038l64.689,441.554c1.646,11.245-4.551,24.562-13.872,29.727L612.884,853.053c-9.322,5.166-18.219.218-19.866-11.025L528.331,400.471C526.681,389.229,532.9,375.9,542.225,370.733Z" transform="translate(-516.189 -262.151)"/>
            </g>
            <g id="Group_37" data-name="Group 37" transform="translate(104.784 359.382)">
              <path id="Path_29" data-name="Path 29" class="cls-20" d="M536.991,1166.314l171.132-94.861c3.8-2.107,7.527-2.4,10.639-1.193,3.989,1.553,6.972,5.588,7.834,11.468l11.357,80.009c1.533,10.467-4.237,22.862-12.912,27.671l-171.134,94.861c-8.679,4.808-16.96.2-18.493-10.262L524.058,1194C522.523,1183.531,528.315,1171.124,536.991,1166.314Z" transform="translate(-523.811 -1055.897)"/>
              <g id="Group_36" data-name="Group 36" transform="translate(3.931)">
                <path id="Path_30" data-name="Path 30" class="cls-18" d="M555.825,1167.772l13.964,88.616-1.565.19-4.27-1.658c-4.681-1.844-7.138-6.719-7.825-11.456l-11.356-80.007a.267.267,0,0,1-.007-.047c-.981-6.912,1.1-14.108,4.9-19.883a23.146,23.146,0,0,1,8.043-7.756l171.135-94.86a12.507,12.507,0,0,1,10.644-1.189l3.765,1.47c1.894.712,2.48,1.281,2.468,1.4C743.942,1059.153,553.332,1150.785,555.825,1167.772Z" transform="translate(-544.525 -1039.018)"/>
                <path id="Path_31" data-name="Path 31" class="cls-21" d="M518.564,1139.547l171.131-94.861c3.8-2.108,7.527-2.4,10.639-1.193,3.989,1.553,6.972,5.588,7.834,11.467l11.356,80.009c1.534,10.468-4.235,22.862-12.911,27.671L535.478,1257.5c-8.678,4.808-16.96.2-18.492-10.262l-11.356-80.012C504.094,1156.764,509.887,1144.356,518.564,1139.547Z" transform="translate(-501.074 -1041.099)"/>
                <path id="Path_32" data-name="Path 32" class="cls-22" d="M724.435,1129.6a6.9,6.9,0,0,1-3.086,6.615l-175.655,97.441c-2.075,1.15-4.054.049-4.421-2.453-2.854-17.284-4.962-34.937-7.421-52.311a6.907,6.907,0,0,1,3.092-6.617L712.6,1074.831a2.963,2.963,0,0,1,2.544-.284,3.26,3.26,0,0,1,1.873,2.742Z" transform="translate(-518.501 -1058.566)"/>
                <path id="Path_33" data-name="Path 33" class="cls-23" d="M533.433,1342.528l175.654-97.443a2.966,2.966,0,0,1,2.544-.283,3.259,3.259,0,0,1,1.873,2.742l.652,3.943a6.9,6.9,0,0,1-3.087,6.614l-175.655,97.442c-2.075,1.149-4.054.048-4.421-2.453l-.652-3.945A6.9,6.9,0,0,1,533.433,1342.528Z" transform="translate(-506.65 -1152.691)"/>
              </g>
            </g>
            <g id="Group_39" data-name="Group 39" transform="translate(17.513 105.942)">
              <path id="Path_34" data-name="Path 34" class="cls-24" d="M957.267,509.526l63.7-35.2c4.195-2.325,8.3-2.652,11.735-1.315,4.4,1.713,7.692,6.164,8.641,12.65l7.906,56.466c1.692,11.546-4.673,25.218-14.242,30.524L971.3,607.85a17.189,17.189,0,0,1-4.427,1.74l-11.68-3.4-11.44-77.749C945.816,520.479,950.819,513.1,957.267,509.526Z" transform="translate(-935.636 -472.231)"/>
              <g id="Group_38" data-name="Group 38" transform="translate(0 0.412)">
                <path id="Path_35" data-name="Path 35" class="cls-18" d="M995.863,543.045l10.04,61.931-1.565.19-4.27-1.658c-4.681-1.844-7.138-6.718-7.825-11.457l-7.433-53.322a.332.332,0,0,1-.006-.046c-.981-6.912,1.1-14.108,4.9-19.883a23.135,23.135,0,0,1,8.043-7.756l65.574-36a12.507,12.507,0,0,1,10.643-1.189l3.766,1.472c1.894.711,2.48,1.281,2.468,1.4C1078.419,493.289,993.37,526.057,995.863,543.045Z" transform="translate(-984.563 -473.154)"/>
                <path id="Path_36" data-name="Path 36" class="cls-25" d="M967.374,514.819l65.57-36c3.8-2.108,7.527-2.405,10.639-1.193,3.989,1.553,6.973,5.588,7.834,11.468l7.432,53.324c1.533,10.466-4.236,22.861-12.911,27.671l-65.573,36c-8.679,4.808-16.96.2-18.492-10.262L954.442,542.5C952.906,532.036,958.7,519.628,967.374,514.819Z" transform="translate(-949.885 -475.234)"/>
              </g>
            </g>
            <g id="Group_41" data-name="Group 41" transform="translate(226.703 157.539)">
              <path id="Path_38" data-name="Path 38" class="cls-26" d="M605,661.092l33.641-18.469,14.567,99.436-34.025,18.679c-9.477,5.248-18.515.222-20.189-11.2l-8.114-58.22C589.207,679.889,595.531,666.342,605,661.092Z" transform="translate(-590.613 -618.029)"/>
              <g id="Group_40" data-name="Group 40" transform="translate(5.316)">
                <path id="Path_39" data-name="Path 39" class="cls-18" d="M516.146,657.513l10.041,61.931-1.565.19-4.27-1.658c-4.682-1.844-7.139-6.719-7.825-11.456L505.094,653.2a.286.286,0,0,1-.007-.047c-.981-6.913,1.1-14.108,4.9-19.883a23.133,23.133,0,0,1,8.042-7.756l65.574-36a12.508,12.508,0,0,1,10.643-1.188l3.765,1.47c1.895.712,2.48,1.282,2.468,1.4C598.7,607.757,513.653,640.526,516.146,657.513Z" transform="translate(-504.846 -587.622)"/>
                <path id="Path_40" data-name="Path 40" class="cls-27" d="M487.658,629.288l65.569-36c3.8-2.108,7.527-2.405,10.64-1.193,3.989,1.553,6.972,5.588,7.833,11.468l7.433,53.324c1.533,10.467-4.236,22.861-12.911,27.671l-65.573,36c-8.679,4.808-16.96.2-18.493-10.262l-7.431-53.327C473.19,646.5,478.982,634.1,487.658,629.288Z" transform="translate(-470.168 -589.703)"/>
              </g>
            </g>
            <g id="Group_44" data-name="Group 44" transform="translate(88.629 217.156)">
              <path id="Path_42" data-name="Path 42" class="cls-28" d="M969.317,778.35c11.629-9.272,18.581-28.53,15.533-43.029s-14.939-18.734-26.569-9.463S939.7,754.4,942.75,768.888,957.695,787.616,969.317,778.35Z" transform="translate(-942.034 -720.947)"/>
              <g id="Group_43" data-name="Group 43" transform="translate(4.578 0.35)">
                <path id="Path_43" data-name="Path 43" class="cls-18" d="M980.933,725.372c-2.112-2.2-7.421-3.466-10.395-3.626-3.469-.186-7.341,1.222-11.178,4.385-10.075,8.3-16.106,25.571-13.465,38.555a18.568,18.568,0,0,0,4.174,9.063c1.845,1.979,7.778,4.475,10.518,4.694C977.009,780.728,987.148,731.853,980.933,725.372Z" transform="translate(-945.274 -721.729)"/>
                <g id="Group_42" data-name="Group 42" transform="translate(4.001 1.012)">
                  <path id="Path_44" data-name="Path 44" class="cls-29" d="M959.46,775.427c10.081-8.308,16.108-25.563,13.465-38.555s-12.95-16.786-23.031-8.478-16.106,25.572-13.465,38.555S949.385,783.73,959.46,775.427Z" transform="translate(-935.809 -723.993)"/>
                </g>
              </g>
            </g>
            <g id="Group_45" data-name="Group 45" transform="translate(229.954 300.062)">
              <path id="Path_46" data-name="Path 46" class="cls-30" d="M601.015,923.121l22.4-12.608c4.29-2.377,8.492-2.713,12-1.345,4.5,1.751,7.866,6.3,8.837,12.937l2.963,20.866c1.73,11.807-4.779,25.79-14.567,31.216l-22.4,12.609c-9.79,5.423-19.131.229-20.862-11.576l-2.96-20.869C584.694,942.544,591.228,928.547,601.015,923.121Z" transform="translate(-586.147 -907.467)"/>
              <path id="Path_47" data-name="Path 47" class="cls-18" d="M611.363,951.427l5.233,27.1-1.565.19-4.27-1.659c-4.681-1.844-7.138-6.719-7.825-11.456l-2.626-18.494a.283.283,0,0,1-.007-.046c-.981-6.912,1.1-14.108,4.9-19.883a23.155,23.155,0,0,1,8.043-7.756L633.1,908.251a12.507,12.507,0,0,1,10.643-1.189l3.765,1.471c1.894.712,2.48,1.284,2.468,1.4C648.2,926.493,608.87,934.439,611.363,951.427Z" transform="translate(-594.857 -906.357)"/>
              <path id="Path_48" data-name="Path 48" class="cls-31" d="M593.623,923.2l19.852-11.177c3.8-2.107,7.527-2.405,10.639-1.193,3.989,1.552,6.972,5.588,7.834,11.467l2.626,18.5c1.534,10.466-4.235,22.861-12.912,27.671l-19.855,11.177c-8.678,4.808-16.959.2-18.493-10.261l-2.623-18.5C579.155,940.419,584.948,928.011,593.623,923.2Z" transform="translate(-570.927 -908.438)"/>
            </g>
            <g id="Group_48" data-name="Group 48" transform="translate(0 240.63)">
              <path id="Path_50" data-name="Path 50" class="cls-32" d="M725.266,859.294,869.8,779.176c3.93-2.178,7.778-2.485,10.993-1.232,4.122,1.6,7.205,5.774,8.1,11.85l14.979,106.2c1.584,10.817-4.377,23.625-13.342,28.594l-134.757,74.7-11.819-3.617Z" transform="translate(-675.034 -775.525)"/>
              <g id="Group_47" data-name="Group 47">
                <path id="Path_51" data-name="Path 51" class="cls-18" d="M798.954,902.2l17.1,111.376-1.565.19-4.27-1.658c-4.682-1.844-7.139-6.719-7.825-11.456L787.9,897.882a.422.422,0,0,1-.006-.046c-.98-6.913,1.1-14.109,4.9-19.883a23.129,23.129,0,0,1,8.043-7.755l171.135-94.86a12.507,12.507,0,0,1,10.644-1.189l3.765,1.47c1.894.712,2.48,1.281,2.467,1.4C987.07,793.58,796.461,885.211,798.954,902.2Z" transform="translate(-787.653 -773.444)"/>
                <path id="Path_52" data-name="Path 52" class="cls-33" d="M754.669,873.973,925.8,779.112c3.8-2.107,7.527-2.4,10.639-1.193,3.989,1.553,6.972,5.588,7.834,11.468l14.5,102.769c1.534,10.467-4.235,22.862-12.912,27.671l-171.134,94.861c-8.678,4.808-16.959.2-18.493-10.262L741.735,901.654C740.2,891.19,745.993,878.782,754.669,873.973Z" transform="translate(-737.179 -775.525)"/>
                <g id="Group_46" data-name="Group 46" transform="translate(22.847 63.49)">
                  <path id="Path_53" data-name="Path 53" class="cls-34" d="M778.313,1013.327l175.654-97.442a2.964,2.964,0,0,1,2.544-.284,3.258,3.258,0,0,1,1.873,2.742l.652,3.943a6.9,6.9,0,0,1-3.087,6.614l-175.655,97.441c-2.075,1.149-4.054.049-4.421-2.453l-.651-3.945A6.9,6.9,0,0,1,778.313,1013.327Z" transform="translate(-775.163 -915.43)"/>
                  <path id="Path_54" data-name="Path 54" class="cls-34" d="M770.415,1067.3l175.654-97.443a2.964,2.964,0,0,1,2.544-.283,3.257,3.257,0,0,1,1.872,2.741l.652,3.944a6.9,6.9,0,0,1-3.087,6.614L772.4,1080.315c-2.076,1.149-4.054.049-4.421-2.453l-.651-3.944A6.906,6.906,0,0,1,770.415,1067.3Z" transform="translate(-763.733 -945.269)"/>
                  <path id="Path_55" data-name="Path 55" class="cls-34" d="M762.518,1074.968l92.854-51.136a2.962,2.962,0,0,1,2.544-.284,3.261,3.261,0,0,1,1.873,2.742l.651,3.943a6.9,6.9,0,0,1-3.086,6.614L764.5,1087.982c-2.076,1.149-4.054.049-4.421-2.453l-.651-3.944A6.905,6.905,0,0,1,762.518,1074.968Z" transform="translate(-751.503 -930.108)"/>
                </g>
              </g>
            </g>
            <g id="Group_52" data-name="Group 52" transform="translate(127.325)">
              <path id="Path_57" data-name="Path 57" class="cls-35" d="M643,380.939,755.27,318.706l18.765,123.66L661.407,504.8c-8.951,4.959-17.493.21-19.075-10.583l-12.674-84.722C628.074,398.7,634.049,385.9,643,380.939Z" transform="translate(-629.404 -281.413)"/>
              <g id="Group_51" data-name="Group 51" transform="translate(3.586)">
                <path id="Path_58" data-name="Path 58" class="cls-18" d="M506.187,364.06l13.375,83.514-1.564.19-4.271-1.658c-4.681-1.844-7.138-6.718-7.824-11.456l-10.769-74.906a.323.323,0,0,1-.006-.046c-.981-6.912,1.1-14.108,4.9-19.883a23.134,23.134,0,0,1,8.043-7.756L679.2,237.2a12.507,12.507,0,0,1,10.643-1.189l3.765,1.47c1.895.712,2.481,1.281,2.468,1.4C694.3,255.441,503.694,347.073,506.187,364.06Z" transform="translate(-494.886 -235.306)"/>
                <path id="Path_59" data-name="Path 59" class="cls-25" d="M470.24,335.834l171.132-94.861c3.8-2.107,7.527-2.4,10.639-1.193,3.989,1.553,6.972,5.588,7.834,11.468l10.767,74.907c1.533,10.467-4.236,22.862-12.912,27.672l-171.134,94.86c-8.678,4.808-16.96.2-18.493-10.261l-10.766-74.911C455.772,353.051,461.564,340.643,470.24,335.834Z" transform="translate(-452.75 -237.386)"/>
                <g id="Group_49" data-name="Group 49" transform="translate(17.105 116.478)">
                  <path id="Path_60" data-name="Path 60" class="cls-36" d="M27.4,60.889C14.677,68.865,2.578,62.456.354,46.6S6.623,11.4,19.342,3.426,44.16,1.859,46.384,17.733C48.609,33.592,40.1,52.921,27.4,60.889Z" transform="translate(0)"/>
                </g>
                <g id="Group_50" data-name="Group 50" transform="translate(16.671 50.148)">
                  <path id="Path_62" data-name="Path 62" class="cls-37" d="M125.628,12.431,4.731,79.987a2.74,2.74,0,0,1-2.348.261,3.009,3.009,0,0,1-1.728-2.53l-.6-3.639a6.373,6.373,0,0,1,2.848-6.1L123.8.421c1.915-1.061,3.741-.046,4.079,2.264l.6,3.64A6.375,6.375,0,0,1,125.628,12.431Z" transform="translate(56.511 14.735)"/>
                  <path id="Path_63" data-name="Path 63" class="cls-37" d="M125.628,12.431,4.731,79.987a2.742,2.742,0,0,1-2.348.261,3.008,3.008,0,0,1-1.728-2.53l-.6-3.64a6.367,6.367,0,0,1,2.848-6.1L123.8.42c1.915-1.06,3.741-.044,4.079,2.264l.6,3.64A6.372,6.372,0,0,1,125.628,12.431Z" transform="translate(53.614 -7.628)"/>
                  <path id="Path_64" data-name="Path 64" class="cls-37" d="M125.628,12.43,4.732,79.987a2.744,2.744,0,0,1-2.348.262A3.012,3.012,0,0,1,.656,77.718l-.6-3.638a6.372,6.372,0,0,1,2.848-6.1L123.8.42c1.915-1.06,3.741-.045,4.08,2.264l.6,3.64A6.369,6.369,0,0,1,125.628,12.43Z" transform="translate(50.173 -29.899)"/>
                  <path id="Path_65" data-name="Path 65" class="cls-38" d="M125.628,12.431,4.731,79.987a2.739,2.739,0,0,1-2.348.262,3.008,3.008,0,0,1-1.728-2.53l-.6-3.639a6.368,6.368,0,0,1,2.847-6.1L123.8.421c1.915-1.062,3.741-.046,4.079,2.263l.6,3.641A6.375,6.375,0,0,1,125.628,12.431Z" transform="translate(59.771 38.365)"/>
                </g>
              </g>
            </g>
          </g>
        </g>
        <g id="Group_66" data-name="Group 66" transform="translate(0 301.646)">
          <path id="Path_66" data-name="Path 66" class="cls-7" d="M1178.588,1620.082l80.52-45.858c8.778-4.01,21.341-7.2,30.285-2.549,8.148,4.241,21.572,12.92,27.507,16.3,4.508,2.571,20.158,11.947,10.411,17.248-28.674,15.592-57.051,33.127-86.168,48.966-5.506,3-13.562,4.078-22.019,3.376a58.309,58.309,0,0,1-23.848-7.1q-7.258-4.223-14.278-8.312c-6.316-3.678-9.665-8.026-10-12.047C1170.677,1626.182,1173.2,1622.542,1178.588,1620.082Z" transform="translate(-1170.973 -1274.486)"/>
          <g id="Group_65" data-name="Group 65" transform="translate(35.987)">
            <path id="Path_67" data-name="Path 67" class="cls-39" d="M1362.111,1079.511c-1.077-4.679-2.587-10.065-3.969-15.558-2.77-11-5.028-22.447-2.267-29.537,1.176-3.02,3.238-4.484,5.572-6.359,6.051-4.862,5.143,8.188,14.63,7.063,1.51,2.019,1.042,6.568.546,10.918C1374.831,1061.752,1367.3,1084.363,1362.111,1079.511Z" transform="translate(-1335.73 -974.62)"/>
            <g id="Group_56" data-name="Group 56" transform="translate(17.88 49.493)">
              <g id="Group_55" data-name="Group 55" transform="translate(42.616)">
                <path id="Path_68" data-name="Path 68" class="cls-5" d="M1274.012,1028.517c-1.075-3.32-4.927-1.564-6.017-.287-1.9,1.915-4.1,4.324-6.71,5.137-1.8.562-6.177,1.373-8.027,7.618-.467,1.577.793,1.475,2.35,3.728,4.948-3.86,10.53-4.042,10.982-4.722C1271.041,1033.3,1268.188,1034.061,1274.012,1028.517Z" transform="translate(-1247.767 -1023.914)"/>
                <path id="Path_69" data-name="Path 69" class="cls-5" d="M1237.6,1047.384l-5.179,6.007-6.022-10.57c.864-1.225,2.463-1.413,3.165-2.778a24.126,24.126,0,0,1,1.227-2.626c2.725-4.907,4.6-5.7,14.27-7.021,2.82-.385,3.108-.868,4.9-2.175l6.6-5.894c2.163-1.605,3.939-2.044,4.783-1.554.939.545,3.282,5.661,3.222,8.35v.012c.189.651-.217,1.594-1.183,2.654-2.873,3.149-5.31,5.938-7.858,9.03-4.376,5.307-3.145,3.3-10.559,4.3C1240.849,1045.669,1239.143,1046.211,1237.6,1047.384Z" transform="translate(-1226.402 -1020.583)"/>
                <path id="Path_70" data-name="Path 70" class="cls-40" d="M1266.637,1031.454c-.252-1.192-1.953-6.925-2.551-7.094-1.179-.332-2.768,1.628-4.273,3.112-2.251,2.22-6.077,6.979-9.154,7.653-7.307,1.6-10.634,4.017-14.049,14.2l1.878-1.2c3.959-12.113,10.912-2.918,18.107-7.431C1260.969,1037.948,1266.836,1032.4,1266.637,1031.454Z" transform="translate(-1232.997 -1022.651)"/>
              </g>
              <path id="Path_71" data-name="Path 71" class="cls-41" d="M1324.892,1068.105c1.692-.672,4.159-1.11,5.244-1.974,1.182-.94,2.889-2.324,3.544-2.792,2.7,1.054,5.845,5.191,7.758,9.061-1.185,1.326-2.363,2.742-3.534,4.219-.871,1.1-1.315,4.084-2.178,5.24-5.358,7.176-17.339,16.014-23.972,22.327-7.924,7.542-17.19,8.208-21.2,3.519-2.15-2.516-3.462-6.359-.731-11.99,1.72-3.547,6.433-7.153,10.533-10.578C1308.163,1078.612,1320.393,1069.893,1324.892,1068.105Z" transform="translate(-1288.283 -1044.221)"/>
            </g>
            <path id="Path_72" data-name="Path 72" class="cls-42" d="M1354.788,1090.26c2.9,3.249,8.258,3.661,13.715-1.288.354-.236.708-.486,1.061-.754l.417-1.049a8.048,8.048,0,0,0,1.2-3.089c.688-1.794,1.39-3.68,2.028-5.484,2.408-6.806,7.429-22.773,8.828-34.693,1.951-16.63-10.705-23.364-19.431-18.868-7.5,3.863-7.882,16.9-8.912,24C1352.222,1059.189,1347.775,1082.391,1354.788,1090.26Z" transform="translate(-1339.226 -972.8)"/>
            <g id="Group_57" data-name="Group 57" transform="translate(0 328.88)">
              <path id="Path_73" data-name="Path 73" class="cls-25" d="M1340.182,1671.454c1.712-.038,7.488-5.465,12.956-2.725,6.569,3.291,19.041.375,25.334,1.887,1.121.269,3.313-.555,3.746.214,1.357,2.412,2.67,6.018-.667,8.378a57.073,57.073,0,0,1-11.154,5.255,94.2,94.2,0,0,1-14.111,3.994c-4.646.727-6.766,1.026-8.505,2.369a12.38,12.38,0,0,1-6.488,1.561,10.937,10.937,0,0,1-8.273-5.775c-.522-1.116-.537-5.995.064-9.159.474-2.5,1.837-5.34,2.926-8Z" transform="translate(-1332.45 -1657.869)"/>
              <path id="Path_74" data-name="Path 74" class="cls-43" d="M1417.339,1647.309c-2.078,4.989-1.44,12.708-6.364,15.388-3.292,1.791-8.447,1.807-10.694-3.308-1.253-2.854.411-7.728.042-13.991Z" transform="translate(-1396.172 -1645.398)"/>
              <path id="Path_75" data-name="Path 75" class="cls-18" d="M1356.524,1661.688c3.774,1.1,14.192.365,20.779.9,2.831.229,5.37.208,6.693,2.779,1.218,2.364.579,4.391-2.178,6.341a46.662,46.662,0,0,1-10.063,4.937,94.224,94.224,0,0,1-14.111,3.995c-4.647.727-6.767,1.026-8.5,2.369a12.385,12.385,0,0,1-6.489,1.561,11.427,11.427,0,0,1-8.272-6.139c-.522-1.117-.538-5.629.065-8.795a16,16,0,0,1,.483-1.863c.519-4.957,2.155-6.961,3.7-6.112,2.113,1.162,2.909,3.252,3.713,4.969a4.855,4.855,0,0,0,2.87,2.737c2.526.8,4.831-.613,6.325-2.78a17.853,17.853,0,0,0,1.732-5.022c.008-.169.01-.338.007-.5.5-4.332,2.6-3.955,2.283-3.041A3.73,3.73,0,0,0,1356.524,1661.688Z" transform="translate(-1333.988 -1652.051)"/>
              <path id="Path_76" data-name="Path 76" class="cls-25" d="M1333.323,1672.813c-.05,1.676,2.516,1.834,1.775,4.777,1.235-1.21-.488-4.682-1.25-5.21C1333.536,1672.164,1333.27,1672.074,1333.323,1672.813Z" transform="translate(-1284.632 -1660.23)"/>
            </g>
            <g id="Group_58" data-name="Group 58" transform="translate(42.561 308.574)">
              <path id="Path_77" data-name="Path 77" class="cls-25" d="M1246.76,1618.57c1.595-.625,5.151-7.708,11.228-7.017,2.452.279,6.394-.361,10.4-1.5,6.38-1.814,15.271-7.517,16.786-6.585,3.306,2.034,3.57,5.743,1.251,9.106a46.7,46.7,0,0,1-7.751,8.1c-2.986,2.474-7.226,6.26-10.939,8.32-3.509,1.947-4.674,1.774-7.172,5.15a11.719,11.719,0,0,1-5.554,3.516c-3.648.713-8.945-1.629-10.852-4.074-1.213-3.924-3.316-7.639-1.968-13.528Z" transform="translate(-1238.662 -1601.856)"/>
              <path id="Path_78" data-name="Path 78" class="cls-43" d="M1328.432,1599.986c-.1,5.4,3.334,12.347-.26,16.65-2.4,2.876-7.191,4.786-11.161.856-2.214-2.194-2.459-7.338-5.1-13.027Z" transform="translate(-1311.906 -1599.986)"/>
              <path id="Path_79" data-name="Path 79" class="cls-18" d="M1269.037,1607.666q.544-.142,1.091-.3c6.381-1.814,14.906-6.21,16.423-5.276,3.306,2.034,3.935,4.434,1.614,7.8a46.6,46.6,0,0,1-7.751,8.1c-2.985,2.475-7.225,6.261-10.938,8.32-3.509,1.947-4.674,1.774-7.172,5.15a11.729,11.729,0,0,1-5.554,3.516c-3.648.712-9.1-1.652-11.012-4.1-.9-2.922-2.138-5.7-2.238-9.374-.531-4.806-.2-7.25,1.89-7.19,3.889.114,5.493,2.163,7.1,3.165,3.46,2.157,5.776-.63,6.343-4.078a20.135,20.135,0,0,0-.317-4.557c-.054-.16-.114-.319-.179-.473-1.132-4.212.966-4.634,1-3.668a3.611,3.611,0,0,0,3.209,3.679C1264.657,1608.7,1267.329,1607.812,1269.037,1607.666Z" transform="translate(-1240.953 -1601.079)"/>
              <path id="Path_80" data-name="Path 80" class="cls-25" d="M1242.68,1602.664c.677,1.533,3.06.571,3.659,3.546.593-1.624-2.457-4.015-3.373-4.163C1242.592,1601.987,1242.313,1602.02,1242.68,1602.664Z" transform="translate(-1197.473 -1601.114)"/>
            </g>
            <g id="Group_59" data-name="Group 59" transform="translate(17.831 146.139)">
              <path id="Path_81" data-name="Path 81" class="cls-44" d="M1344.157,1253.214c1.4,15.657,9.245,65.664,7.062,79.392-3.283,20.643-2.346,45.585-2.309,67.495-.554,9.207-13.212,14.017-16.9,8.167-2.958-19.578-7.167-36.732-8.878-47.611-1.917-12.183-1.284-26.986,1.808-34.992-1.268-8.747-7.233-31.311-12.215-46.948-1.8-5.643-11.984-23.874-1.44-42Z" transform="translate(-1306.577 -1236.72)"/>
              <path id="Path_82" data-name="Path 82" class="cls-45" d="M1330,1588.957c.01,1.624-.051,4.1-.047,5.694-.555,9.207-13.371,14.2-17.055,8.35-.218-1.443-.534-2.873-.764-4.287C1317.083,1604.052,1326.793,1597.117,1330,1588.957Z" transform="translate(-1287.456 -1431.453)"/>
              <path id="Path_83" data-name="Path 83" class="cls-46" d="M1338.975,1348.881c-4.128,20.7-15.8,48.357-22.175,69.172-3.317-17.835-11.618-48.209-4.438-66.8-.722-4.982-2.968-14.445-5.688-24.558,5.524-10.473.245-18.831,2.853-33.58,14.625-2.549-7.448-20.4,23.5-1.6C1335.8,1313.735,1338.4,1327.7,1338.975,1348.881Z" transform="translate(-1293.995 -1262.311)"/>
            </g>
            <g id="Group_60" data-name="Group 60" transform="translate(2.284 155.629)">
              <path id="Path_84" data-name="Path 84" class="cls-47" d="M1322.253,1354.659c-8.437,19.1-24,56.568-32.282,80.008-4.284,6.225-19.556,5.578-19.526-.229,3.371-19.6,7.334-49.825,14.37-67.013,2.153-5.261,10.1-17.919,12.961-21.675,2.226-8.65,5.017-32.011,7.169-44.654-1.931-10.461-10.368-27.95,5.843-43.152,6.541,4.653,26.763,7.562,35.933,2.382C1348.2,1301.645,1338.058,1318.877,1322.253,1354.659Z" transform="translate(-1270.136 -1257.944)"/>
              <path id="Path_85" data-name="Path 85" class="cls-45" d="M1415.391,1644.025c-.369,1.024-1.1,3.093-1.448,4.073-4.41,6.409-20.132,5.742-20.1-.237q.25-1.452.5-2.978C1398.094,1648.7,1409.431,1648.755,1415.391,1644.025Z" transform="translate(-1393.842 -1471.388)"/>
            </g>
            <path id="Path_86" data-name="Path 86" class="cls-48" d="M1255.113,1078.827c1.362,12.274-2.33,24.345,1.428,35.551.168,1.158.275,5.7.473,6.936,2.475,14.516,33.181,29.206,58.789,15.277.141-1.8-.022-3.681.117-7.015-.473-3.113.872-6.451.863-8.35-.036-7.9-2.5-11.938-1.316-20.729,2.4-17.884,12.306-35.071,6.826-49.141-1.177-3.02-3.238-4.484-5.573-6.359-6.052-4.862-37.352-20.8-46.84-21.925C1242.331,1019.5,1253.636,1065.511,1255.113,1078.827Z" transform="translate(-1236.47 -972.357)"/>
            <g id="Group_61" data-name="Group 61" transform="translate(30.374)">
              <path id="Path_87" data-name="Path 87" class="cls-49" d="M1322.974,965.447c-1.742.863-10.583-.39-10.323.4.127,3.956,1.305,6.357,1.686,11.775-9.722-1.358-22.475-2.762-22.983-10.218.041-.6.075-1.193.1-1.78.012-.068.02-.135.033-.2l-.026,0c.1-2.709-.026-5.165-.782-6.387-2.058-3.329-6.288-7.037-7.787-12.083-2.4-8.065-1.523-17.025,6-23,13.732-10.905,31.293-3.146,35.742,12.8.869,3.115-1.587,4.8-1.5,7.464.016.521.706,1.065,1.266,2.221C1325.17,948.038,1325.11,964.39,1322.974,965.447Z" transform="translate(-1281.248 -914.859)"/>
              <path id="Path_88" data-name="Path 88" class="cls-50" d="M1322.943,965.357c-1.741.863-10.492-.3-10.232.491.127,3.956,1.305,6.357,1.686,11.775-5.647,1.387-20.872-.643-23.15-9.21-.04-1.8.039-8.5-.508-9.384-2.058-3.329-6.288-7.037-7.787-12.083-2.4-8.065-1.524-17.025,6-23,13.732-10.905,31.293-3.146,35.742,12.8.869,3.115-1.587,4.8-1.5,7.464.017.521.707,1.065,1.266,2.221C1325.229,948.038,1325.078,964.3,1322.943,965.357Z" transform="translate(-1281.307 -914.859)"/>
              <path id="Path_89" data-name="Path 89" class="cls-51" d="M1322.688,965.447c-.924.5-4.742.17-7.584-.922a13.254,13.254,0,0,1-3.367-2.337c-1.178-.476-3.793-4.189.259-10.1,3.951-5.762-19.975,8.989-21.242,6.942-2.057-3.328-6.288-7.037-7.787-12.083-2.395-8.065-1.523-17.025,6-23,13.732-10.905,31.293-3.146,35.742,12.8.869,3.115-1.587,4.8-1.5,7.464.016.521.706,1.065,1.266,2.221C1325.244,948.038,1324.786,964.32,1322.688,965.447Z" transform="translate(-1281.322 -914.859)"/>
              <path id="Path_90" data-name="Path 90" class="cls-5" d="M1314.69,992.44c-4.92-4.586-9.669,10-1.752,9.849C1309.849,999.018,1312.2,993.84,1314.69,992.44Z" transform="translate(-1283.164 -955.038)"/>
              <path id="Path_91" data-name="Path 91" class="cls-52" d="M1312.307,995.1c.739-2.04.116-2.783-.782-2.562-.986.242-2.386,1.658-3.115,3.771-1.175,3.41.509,7.717,3.8,6.035-2.833.164-2.568-3.25-1.718-5.356C1311.07,995.554,1311.963,994.54,1312.307,995.1Z" transform="translate(-1280.805 -955.563)"/>
              <path id="Path_92" data-name="Path 92" class="cls-5" d="M1310.464,1000.373c.792,1.474,1.067,2.351.812,2.858-.177.352-.724.753-1.617-.111A5.087,5.087,0,0,1,1310.464,1000.373Z" transform="translate(-1280.264 -959.917)"/>
              <path id="Path_93" data-name="Path 93" class="cls-53" d="M1317.8,929.823l.19-.1c6.61-3.525,5.57-10.817,2.778-13.295-5.393-4.785-20.027-4.286-29.3.492-9.445,4.863-11.759,16.967-8.935,26.477,1.878,6.329,6.451,9.633,8.735,14.428a5.743,5.743,0,0,0,5.817,2.122c6.548-1.354,8.062-8.263,12-11.3,2.159-1.668,4.378-2.114,5.189,2.438.157,2,.187,4.032.333,5.873.23,2.895-.492,3.434,1.96,4.427,2.351.953,6.931,1.885,7.714,1.578.611-.24.572-3.853.458-6.551-.246-.021-.258.926-.384.908-.242-.035-.534-.1-.881-.129a10.632,10.632,0,0,1,.391-3.278,5.183,5.183,0,0,1,1.079-2.458,4.166,4.166,0,0,0,.13-2.121,6.678,6.678,0,0,0-2.8,3.951,19.9,19.9,0,0,0-.728,3.59c-1.4-.268-2.816-.477-3.354-1.1-1.38-1.595-1.625-3.6-2.122-6.717-.116-5.49.124-6.3,2.979-10.377.791-1.127.83-3.429-1.126-8.563C1317.877,930.017,1317.838,929.92,1317.8,929.823Z" transform="translate(-1281.408 -911.657)"/>
              <path id="Path_94" data-name="Path 94" class="cls-54" d="M1308.984,924.881c-2.037,2.553-10.789-3.35-23.04-1.1,2.624-8.091,4.14-9.808,7.819-12.176,4.8-3.086,12.872-1.827,15.405,2.426C1311.6,918.11,1310.624,922.826,1308.984,924.881Z" transform="translate(-1268.925 -909.899)"/>
            </g>
            <path id="Path_95" data-name="Path 95" class="cls-55" d="M1294.733,1024.41c-2.655.818-5.327,3.447-4.842,5.2,2.643,10.8,22.711,12.846,35.02,10.246.147-.03-4.789-6.5-7.145-7.268C1310.019,1033.345,1297.122,1030.786,1294.733,1024.41Z" transform="translate(-1254.573 -973.206)"/>
            <g id="Group_64" data-name="Group 64" transform="translate(61.188 71.803)">
              <path id="Path_96" data-name="Path 96" class="cls-39" d="M1275.326,1140.871c.909-21.7,4.87-45.5,5.387-53.092.221-3.233-1.021-5.437-2.336-8.126-1.282-2.624-17.193-2.587-21.386,9.813C1255.285,1122.123,1267.077,1143.316,1275.326,1140.871Z" transform="translate(-1256.824 -1074.784)"/>
              <g id="Group_63" data-name="Group 63" transform="translate(1.346)">
                <g id="Group_62" data-name="Group 62" transform="translate(67.438 28.577)">
                  <path id="Path_97" data-name="Path 97" class="cls-5" d="M1073.191,1151.388l-6.991,3.744-1.82-12.028c1.246-.832,2.806-.433,3.952-1.454a24.085,24.085,0,0,1,2.089-2.009c4.307-3.6,6.339-3.667,15.839-1.423,2.77.654,3.213.308,5.355-.268l8.276-3.129c2.6-.72,4.41-.491,5.021.269.681.846,1.028,6.463.005,8.95l-.005.01c-.058.676-.776,1.409-2.058,2.051-3.813,1.906-7.09,3.634-10.579,5.6-5.991,3.38-4.121,1.95-11.4.214C1076.838,1150.956,1075.051,1150.848,1073.191,1151.388Z" transform="translate(-1064.379 -1134.386)"/>
                  <path id="Path_98" data-name="Path 98" class="cls-40" d="M1109.512,1145.021c.193-1.2.342-5.8-.156-6.177-.981-.734-3.3.868-5.238,1.713-3.026,1.317-5.337,1-6.387.512-3.579,2.588-13.714-.979-22.661,9.831l2.733.959c3.071-.815,10.885,1.067,19.222-.559C1102.093,1150.31,1109.36,1145.973,1109.512,1145.021Z" transform="translate(-1073.292 -1136.746)"/>
                  <path id="Path_99" data-name="Path 99" class="cls-5" d="M1110.215,1154.986c.583-3.441-3.645-3.666-5.2-3.038-2.572.818-5.634,1.938-8.325,1.45-1.86-.336-6.112-1.639-10.64,3.041-1.144,1.182.021,1.675.359,4.391,6.172-1.134,11.206,1.287,11.921.894C1105.369,1157.852,1102.487,1157.208,1110.215,1154.986Z" transform="translate(-1078.558 -1143.942)"/>
                </g>
                <path id="Path_100" data-name="Path 100" class="cls-56" d="M1172.648,1114.031c8.823-3.073,21.018-6.809,27.853-6.881,1.821-.019,4.28.459,5.6.043,1.441-.452,3.531-1.131,4.31-1.332,2.145,1.956,3.588,6.945,3.982,11.244-1.583.811-3.191,1.709-4.814,2.666-1.208.712-2.7,3.339-3.917,4.108-7.579,4.771-21.936,8.71-30.395,12.217-3.833,1.589-6.923,3.063-11.385,2.987a18.875,18.875,0,0,1-7.042-3.453c-.372-.207-.744-.428-1.117-.668l-.5-1.013a8.034,8.034,0,0,1-1.441-2.984c-.827-1.734-1.676-3.559-2.454-5.307-2.937-6.6-9.2-22.118-11.532-33.891-3.254-16.424,8.833-24.134,17.885-20.339,7.777,3.261,9.188,16.227,10.775,23.22C1169.9,1100.99,1171.469,1108.194,1172.648,1114.031Z" transform="translate(-1139.26 -1070.476)"/>
              </g>
            </g>
          </g>
        </g>
      </g>
    </g>
  </g>
</svg>
