<svg id="Group_117" data-name="Group 117" xmlns="http://www.w3.org/2000/svg" xmlns:xlink="http://www.w3.org/1999/xlink" width="818.056" height="755.644" viewBox="0 0 818.056 755.644">
  <defs>
    <style>
      .cls-1 {
        fill: #c8d6fa;
      }

      .cls-2 {
        fill: #202249;
      }

      .cls-10, .cls-11, .cls-12, .cls-13, .cls-14, .cls-15, .cls-16, .cls-17, .cls-18, .cls-19, .cls-2, .cls-20, .cls-21, .cls-22, .cls-23, .cls-24, .cls-25, .cls-26, .cls-27, .cls-28, .cls-29, .cls-3, .cls-30, .cls-31, .cls-32, .cls-33, .cls-34, .cls-35, .cls-37, .cls-38, .cls-39, .cls-4, .cls-40, .cls-41, .cls-42, .cls-43, .cls-44, .cls-45, .cls-46, .cls-47, .cls-48, .cls-49, .cls-5, .cls-50, .cls-51, .cls-52, .cls-53, .cls-54, .cls-55, .cls-56, .cls-57, .cls-58, .cls-59, .cls-6, .cls-60, .cls-61, .cls-7, .cls-8, .cls-9 {
        fill-rule: evenodd;
      }

      .cls-3 {
        fill: url(#linear-gradient);
      }

      .cls-4 {
        fill: #1e2353;
        opacity: 0.3;
      }

      .cls-11, .cls-12, .cls-13, .cls-17, .cls-29, .cls-34, .cls-36, .cls-4, .cls-53, .cls-6 {
        mix-blend-mode: multiply;
        isolation: isolate;
      }

      .cls-5 {
        fill: url(#linear-gradient-2);
      }

      .cls-37, .cls-6 {
        fill: #59caaf;
      }

      .cls-29, .cls-36, .cls-53, .cls-6 {
        opacity: 0.35;
      }

      .cls-7 {
        fill: url(#linear-gradient-3);
      }

      .cls-8 {
        fill: url(#linear-gradient-4);
      }

      .cls-9 {
        fill: #4a9ff8;
      }

      .cls-10 {
        fill: #5858f0;
      }

      .cls-11, .cls-12, .cls-13, .cls-16, .cls-17, .cls-34 {
        opacity: 0.5;
      }

      .cls-11 {
        fill: url(#linear-gradient-5);
      }

      .cls-12 {
        fill: url(#linear-gradient-6);
      }

      .cls-13 {
        fill: url(#linear-gradient-7);
      }

      .cls-14 {
        fill: #d0e7ff;
      }

      .cls-15 {
        fill: url(#linear-gradient-8);
      }

      .cls-16, .cls-19 {
        fill: #fffcf1;
      }

      .cls-17 {
        fill: url(#linear-gradient-9);
      }

      .cls-18 {
        fill: url(#linear-gradient-10);
      }

      .cls-20 {
        fill: #fff;
      }

      .cls-21 {
        fill: url(#linear-gradient-11);
      }

      .cls-22 {
        fill: #ffdb59;
      }

      .cls-23, .cls-25, .cls-37 {
        opacity: 0.2;
      }

      .cls-23 {
        fill: url(#linear-gradient-12);
      }

      .cls-24 {
        fill: url(#linear-gradient-13);
      }

      .cls-25 {
        fill: url(#linear-gradient-14);
      }

      .cls-26 {
        fill: url(#linear-gradient-15);
      }

      .cls-27 {
        fill: url(#linear-gradient-16);
      }

      .cls-28 {
        fill: url(#linear-gradient-17);
      }

      .cls-29 {
        fill: #3469c0;
      }

      .cls-30 {
        fill: url(#linear-gradient-18);
      }

      .cls-31 {
        fill: url(#linear-gradient-19);
      }

      .cls-32 {
        fill: #ffa698;
      }

      .cls-33 {
        fill: #ff9080;
      }

      .cls-34 {
        fill: url(#linear-gradient-20);
      }

      .cls-35 {
        fill: url(#linear-gradient-21);
      }

      .cls-38 {
        fill: url(#linear-gradient-22);
      }

      .cls-39 {
        fill: #6d6afd;
      }

      .cls-40 {
        fill: url(#linear-gradient-23);
      }

      .cls-41 {
        fill: url(#linear-gradient-24);
      }

      .cls-42 {
        fill: url(#linear-gradient-25);
      }

      .cls-43 {
        fill: #ffa495;
      }

      .cls-44 {
        fill: #193161;
      }

      .cls-45 {
        fill: url(#linear-gradient-26);
      }

      .cls-46 {
        fill: url(#linear-gradient-27);
      }

      .cls-47 {
        fill: url(#linear-gradient-28);
      }

      .cls-48 {
        fill: url(#linear-gradient-29);
      }

      .cls-49 {
        fill: url(#linear-gradient-30);
      }

      .cls-50 {
        fill: #ff8978;
      }

      .cls-51 {
        fill: url(#linear-gradient-31);
      }

      .cls-52 {
        fill: url(#linear-gradient-32);
      }

      .cls-53 {
        fill: #6266d7;
      }

      .cls-54 {
        fill: url(#linear-gradient-33);
      }

      .cls-55 {
        fill: url(#linear-gradient-34);
      }

      .cls-56 {
        fill: #ffb49c;
      }

      .cls-57 {
        fill: #ff9d8e;
      }

      .cls-58 {
        fill: #562e65;
      }

      .cls-59 {
        fill: url(#linear-gradient-35);
      }

      .cls-60 {
        fill: url(#linear-gradient-36);
      }

      .cls-61 {
        fill: url(#linear-gradient-37);
      }
    </style>
    <linearGradient id="linear-gradient" x1="0.5" y1="0.176" x2="0.5" y2="0.915" gradientUnits="objectBoundingBox">
      <stop offset="0" stop-color="#324179"/>
      <stop offset="1" stop-color="#0c124d"/>
    </linearGradient>
    <linearGradient id="linear-gradient-2" x1="0.5" y1="0.176" x2="0.499" y2="0.915" xlink:href="#linear-gradient"/>
    <linearGradient id="linear-gradient-3" x1="0.486" y1="0.295" x2="0.346" y2="0.879" gradientUnits="objectBoundingBox">
      <stop offset="0" stop-color="#d1e8ff"/>
      <stop offset="1" stop-color="#eaefff"/>
    </linearGradient>
    <linearGradient id="linear-gradient-4" x1="0.628" y1="0.18" x2="0.338" y2="0.902" gradientUnits="objectBoundingBox">
      <stop offset="0" stop-color="#6d6afe"/>
      <stop offset="1" stop-color="#3fb0f7"/>
    </linearGradient>
    <linearGradient id="linear-gradient-5" x1="0.403" y1="0.663" x2="0.709" y2="0.148" gradientUnits="objectBoundingBox">
      <stop offset="0" stop-color="#965cf2"/>
      <stop offset="1" stop-color="#ff8adc"/>
    </linearGradient>
    <linearGradient id="linear-gradient-6" x1="0.439" y1="0.643" x2="0.768" y2="0.166" xlink:href="#linear-gradient-5"/>
    <linearGradient id="linear-gradient-7" x1="0.408" y1="0.675" x2="0.716" y2="0.158" xlink:href="#linear-gradient-5"/>
    <linearGradient id="linear-gradient-8" x1="0.532" y1="0.401" x2="0.466" y2="0.605" gradientUnits="objectBoundingBox">
      <stop offset="0" stop-color="#1c8ef4"/>
      <stop offset="1" stop-color="#00cfdd"/>
    </linearGradient>
    <linearGradient id="linear-gradient-9" x1="0.381" y1="0.74" x2="0.822" y2="-0.004" xlink:href="#linear-gradient-5"/>
    <linearGradient id="linear-gradient-10" x1="0.636" y1="0.163" x2="0.33" y2="0.923" xlink:href="#linear-gradient-4"/>
    <linearGradient id="linear-gradient-11" x1="0.961" y1="0.214" x2="0.547" y2="0.718" gradientUnits="objectBoundingBox">
      <stop offset="0" stop-color="#ff66bc"/>
      <stop offset="0.56" stop-color="#ff8adc"/>
      <stop offset="1" stop-color="#ffbba8"/>
    </linearGradient>
    <linearGradient id="linear-gradient-12" x1="0.775" y1="0.491" x2="0.129" y2="0.512" xlink:href="#linear-gradient-11"/>
    <linearGradient id="linear-gradient-13" x1="0.586" y1="0.591" x2="0.785" y2="0.162" xlink:href="#linear-gradient-5"/>
    <linearGradient id="linear-gradient-14" x1="0.515" y1="0.71" x2="0.471" y2="0.086" xlink:href="#linear-gradient-5"/>
    <linearGradient id="linear-gradient-15" x1="0.499" y1="0.081" x2="0.501" y2="0.837" gradientUnits="objectBoundingBox">
      <stop offset="0" stop-color="#5a2d68"/>
      <stop offset="1" stop-color="#22043d"/>
    </linearGradient>
    <linearGradient id="linear-gradient-16" x1="0.657" y1="0.509" x2="0.395" y2="0.469" gradientUnits="objectBoundingBox">
      <stop offset="0" stop-color="#ff8a78"/>
      <stop offset="1" stop-color="#ffa799"/>
    </linearGradient>
    <linearGradient id="linear-gradient-17" x1="0.514" y1="0.843" x2="0.496" y2="0.134" xlink:href="#linear-gradient-5"/>
    <linearGradient id="linear-gradient-18" x1="0.606" y1="0.853" x2="0.432" y2="0.198" xlink:href="#linear-gradient-5"/>
    <linearGradient id="linear-gradient-19" x1="0.398" y1="0.535" x2="0.622" y2="0.759" xlink:href="#linear-gradient-16"/>
    <linearGradient id="linear-gradient-20" x1="0.601" y1="0.77" x2="0.276" y2="-0.099" xlink:href="#linear-gradient-5"/>
    <linearGradient id="linear-gradient-21" x1="0.626" y1="0.31" x2="0.489" y2="0.566" xlink:href="#linear-gradient-4"/>
    <linearGradient id="linear-gradient-22" x1="0.555" y1="0.351" x2="0.43" y2="0.687" xlink:href="#linear-gradient-4"/>
    <linearGradient id="linear-gradient-23" x1="0.443" y1="0.631" x2="0.633" y2="0.197" xlink:href="#linear-gradient-5"/>
    <linearGradient id="linear-gradient-24" x1="0.662" y1="0.557" x2="0.49" y2="0.513" xlink:href="#linear-gradient-16"/>
    <linearGradient id="linear-gradient-25" x1="0.574" y1="0.83" x2="0.393" y2="0.15" xlink:href="#linear-gradient-5"/>
    <linearGradient id="linear-gradient-26" x1="0.704" y1="0.221" x2="0.253" y2="0.779" gradientUnits="objectBoundingBox">
      <stop offset="0" stop-color="#40457f"/>
      <stop offset="1" stop-color="#1e2353"/>
    </linearGradient>
    <linearGradient id="linear-gradient-27" x1="0.644" y1="0.321" x2="0.217" y2="0.982" gradientUnits="objectBoundingBox">
      <stop offset="0" stop-color="#3773b9"/>
      <stop offset="1" stop-color="#003c76"/>
    </linearGradient>
    <linearGradient id="linear-gradient-28" x1="0.851" y1="0.22" x2="-0.056" y2="0.742" xlink:href="#linear-gradient-26"/>
    <linearGradient id="linear-gradient-29" x1="0.587" y1="0.35" x2="0.051" y2="0.693" xlink:href="#linear-gradient-27"/>
    <linearGradient id="linear-gradient-30" x1="0.201" y1="0.854" x2="0.66" y2="0.351" xlink:href="#linear-gradient-16"/>
    <linearGradient id="linear-gradient-31" x1="0.497" y1="0.492" x2="0.704" y2="0.762" gradientUnits="objectBoundingBox">
      <stop offset="0" stop-color="#a77ef7"/>
      <stop offset="1" stop-color="#5e65d6"/>
    </linearGradient>
    <linearGradient id="linear-gradient-32" x1="0.518" y1="0.169" x2="0.379" y2="0.906" xlink:href="#linear-gradient-31"/>
    <linearGradient id="linear-gradient-33" x1="0.603" y1="0.301" x2="0.48" y2="0.661" xlink:href="#linear-gradient-16"/>
    <linearGradient id="linear-gradient-34" x1="0.555" y1="0.429" x2="0.25" y2="0.705" gradientUnits="objectBoundingBox">
      <stop offset="0" stop-color="#ffb89e"/>
      <stop offset="1" stop-color="#ffa799"/>
    </linearGradient>
    <linearGradient id="linear-gradient-35" x1="1.001" y1="0.119" x2="0.284" y2="0.728" gradientUnits="objectBoundingBox">
      <stop offset="0" stop-color="#8a4791"/>
      <stop offset="1" stop-color="#562e65"/>
    </linearGradient>
    <linearGradient id="linear-gradient-36" x1="0.288" y1="0.705" x2="0.792" y2="0.272" xlink:href="#linear-gradient-16"/>
    <linearGradient id="linear-gradient-37" x1="0.495" y1="0.126" x2="0.536" y2="1.56" xlink:href="#linear-gradient-31"/>
  </defs>
  <path id="blob_5_" data-name="blob (5)" class="cls-1" d="M472.856,89.193c36.7,66.592,9.281,172.681-13.921,278.769s-41.764,212.177-104.2,260.858-168.743,40.874-234.13-11.941C55.64,564.065,31.172,466.7,14.72,372.1-2.154,277.029-11.435,184.719,26.11,117.667,64.077,50.156,148.87,7.9,241.679,1.016,334.909-5.873,435.732,22.142,472.856,89.193Z" transform="translate(0 425.009) rotate(-60)"/>
  <path id="Path_101" data-name="Path 101" class="cls-2" d="M7139.668,607.338c.325.19.766.327,1.286.6,1.694,4.076,2.335,5.272,2,5.678-.273.331-.241.154-.388.973-.2,1.117,3.719,5.954,4.324,7.488a5.582,5.582,0,0,1,.136,4.07,21.036,21.036,0,0,1-4.172,7.071c-1.553,1.747-3.268,2.858-4.756,2.523-1.836-.412-1.523-2.06-1.249-3.687.1-.582,1.205-1.869,1.119-2.442-.491-3.263-2.877-6.111-4.631-8.936-1.5-1.4-4.035-2.871-5.438-4.491-2.026-2.338-2.409-4.8.107-6.23.8-.457,2.822-2.729,3.857-2.645C7133.845,607.473,7137.163,605.873,7139.668,607.338Z" transform="translate(-6734.046 -381.131)"/>
  <path id="Path_102" data-name="Path 102" class="cls-3" d="M6988.189,506.848c-1.362,3.711-.3,7,2.68,8.42l.059.056q.177.063.362.125a7.434,7.434,0,0,0,.979.308c3.568,1.058,8.9,2.021,12.164,2.643,13.012,2.484,32.4,4.035,41.5,7.51,3.572-2.623,4.63-7.493,2.292-10.415-9.932-4.733-23.346-10.881-28.974-12.965a16.119,16.119,0,0,0-4.7-.79c8.381-7.558,17.259-15.743,20.707-22.72,2.442-4.938,2.835-11.8,4.535-16.087-13.682,4-16.3-4.251-18.814-7.154-2.156,3.159-2.1,2.575-4.286,5.953-7.378,11.423-18.254,27.62-25.652,39.65A19.28,19.28,0,0,0,6988.189,506.848Z" transform="translate(-6650.33 -289.994)"/>
  <path id="Path_103" data-name="Path 103" class="cls-4" d="M7050.895,508.339c-5.581-2.525-10.642-4.721-13.58-5.809a16.116,16.116,0,0,0-4.7-.79c8.381-7.558,17.259-15.743,20.706-22.72,2.441-4.938,2.837-11.8,4.535-16.087a20.044,20.044,0,0,1-9.173.859l.369,2.673c-10.557,10.511-29.757,34.94-31.542,50.892,6.454,1.5,24.08,3.765,26.907,4.082.736-4.732,3.827-8.5,6.476-13.1Zm-9.622-49.446c-.887-1.2-1.562-2.343-2.229-3.114-1.372,2.011-1.849,2.505-2.577,3.47Z" transform="translate(-6668.389 -289.994)"/>
  <path id="Path_104" data-name="Path 104" class="cls-2" d="M7089.669,734.557c1.921,2.665-3.262,16.04-4.524,18.857-1.112,2.484-.758,4.008,1.875,4.047,2.074.031,5.368-2.909,7.376-4.832,3.766-3.608,3.982-7.283,5.075-8.849l1.283-.411c.936-.53,3.712-4.151,3.861-5.522a30.009,30.009,0,0,0-1.429-3.725c-2.048-3.781-2.5-2.128-5.195-4.439C7094.91,731.914,7097.094,732.805,7089.669,734.557Z" transform="translate(-6708.868 -455.381)"/>
  <path id="Path_105" data-name="Path 105" class="cls-5" d="M7033.709,515.112c5.622,10.881,19.6,35.419,24.538,46.326,4.355.919,8.769-1.624,9.152-5.048-3.179-10.458-8.337-27.677-10.887-33.167a73.054,73.054,0,0,0-7.667-12.158c8.306-11.62,21.463-29.913,25.263-40.636,5.169-14.588-.764-22.913-8.729-27.5-2.832-1.628-5.88.983-7.319-.762a116.584,116.584,0,0,0-8.459,23.773c-2.774,11.319-16,35.339-17,43.416a8.745,8.745,0,0,0,.794,4.569C7033.475,514.311,7033.579,514.7,7033.709,515.112Z" transform="translate(-6677.48 -281.778)"/>
  <path id="Path_106" data-name="Path 106" class="cls-6" d="M6960.439,1386.431l-382.6-215.194c-4.829-2.2-11.926-4.272-16.663-1.38l-12.119,7.4c-2.437,1.488-10.455,6.43-5.093,9.338,15.776,8.557,369.049,208.367,385.07,217.059,3.028,1.644,7.463,2.234,12.114,1.841a30.476,30.476,0,0,0,13.122-3.926l4.841-2.991c3.422-2.115,5.317-4.424,5.5-6.635C6964.792,1389.781,6963.4,1387.781,6960.439,1386.431Z" transform="translate(-6381.365 -720.306)"/>
  <path id="Path_107" data-name="Path 107" class="cls-7" d="M6719.978,288.137a10.135,10.135,0,0,0-8.623-.963l-6.475,2.53c-2.35,12.166,333.393,570.348,336.4,573.442l5.779-2.181c3.793-1.494,5.784-5.444,6.341-9.282l48.788-333.03.006-.037a23.791,23.791,0,0,0-3.969-16.111,18.738,18.738,0,0,0-6.517-6.284Z" transform="translate(-6479.611 -187.844)"/>
  <path id="Path_108" data-name="Path 108" class="cls-8" d="M7001.147,502.426,6629.425,294.343c-7.03-3.9-13.726-.156-14.968,8.326L6565.668,635.7c-1.241,8.482,3.433,18.525,10.462,22.421L6947.854,866.2c7.03,3.9,13.741.165,14.983-8.315l48.79-333.033C7012.87,516.376,7008.176,506.324,7001.147,502.426Z" transform="translate(-6395.44 -191.586)"/>
  <path id="Path_109" data-name="Path 109" class="cls-9" d="M7073.3,502.426,6701.58,294.343c-7.031-3.9-13.725-.156-14.967,8.325l-1.645,11.231,397.151,222.317,1.663-11.361C7085.025,516.376,7080.332,506.324,7073.3,502.426Z" transform="translate(-6467.596 -191.586)"/>
  <path id="Path_110" data-name="Path 110" class="cls-10" d="M6712.866,317.454c2.819.645,4.985,4,4.837,7.5s-2.554,5.807-5.372,5.162-4.985-4-4.837-7.5S6710.047,316.809,6712.866,317.454Z" transform="translate(-6481.192 -206.407)"/>
  <path id="Path_111" data-name="Path 111" class="cls-10" d="M6745.268,336.063c2.819.645,4.984,4,4.836,7.5s-2.553,5.807-5.372,5.162-4.984-4-4.836-7.5S6742.449,335.418,6745.268,336.063Z" transform="translate(-6500.757 -217.644)"/>
  <path id="Path_112" data-name="Path 112" class="cls-10" d="M6780.328,356.5c2.819.645,4.984,4,4.836,7.5s-2.554,5.807-5.373,5.162-4.984-4-4.836-7.5S6777.509,355.858,6780.328,356.5Z" transform="translate(-6521.926 -229.986)"/>
  <path id="Path_113" data-name="Path 113" class="cls-11" d="M7408.682,1054.49l-66.774-36.659c-3.873-2.146-7.666-2.449-10.835-1.215-4.062,1.582-7.1,5.691-7.977,11.678l-7.57,54.3c-1.562,10.66,4.314,23.281,13.149,28.18l66.776,36.659c8.839,4.9,17.271.206,18.833-10.45l7.567-54.307C7423.416,1072.023,7417.516,1059.387,7408.682,1054.49Z" transform="translate(-6848.181 -628.197)"/>
  <path id="Path_114" data-name="Path 114" class="cls-12" d="M7247.055,631.238l146.411,71.411-3.877,3.96-14.054,98.22c-1.435,10.074-9.1,14.54-17.1,9.962l-137.046-78.356-11.9-26.553Z" transform="translate(-6784.303 -395.939)"/>
  <path id="Path_115" data-name="Path 115" class="cls-13" d="M6675.032,937.262l-90.519-50.175-3.027,4.619-14.863,101.24,93.755,51.968c9.924,5.5,19.392.232,21.147-11.734l8.3-64.263C6691.577,956.95,6684.954,942.762,6675.032,937.262Z" transform="translate(-6396.138 -550.423)"/>
  <path id="Path_116" data-name="Path 116" class="cls-14" d="M6512.856,854.634l-10.813,71.045,1.716.208,4.681-1.818c5.133-2.022,7.828-7.366,8.58-12.56l7.956-61.607a.429.429,0,0,0,.006-.051c1.076-7.578-1.2-15.466-5.37-21.8a25.368,25.368,0,0,0-8.817-8.5l-187.622-104a13.71,13.71,0,0,0-11.669-1.3l-4.126,1.612c-2.077.781-2.72,1.4-2.706,1.534C6306.617,735.552,6515.589,836.01,6512.856,854.634Z" transform="translate(-6237.967 -445.595)"/>
  <path id="Path_117" data-name="Path 117" class="cls-15" d="M6483.679,824.22l-187.617-104c-4.169-2.311-8.251-2.637-11.663-1.308-4.373,1.7-7.644,6.126-8.588,12.572l-7.954,61.608c-1.682,11.476,4.643,25.065,14.154,30.337l187.62,104c9.515,5.271,18.593.222,20.275-11.251l7.954-61.611C6499.542,843.1,6493.191,829.493,6483.679,824.22Z" transform="translate(-6215.575 -448.407)"/>
  <path id="Path_118" data-name="Path 118" class="cls-16" d="M6589.693,924.993l-129.481-71.219a3.245,3.245,0,0,0-2.789-.311,3.57,3.57,0,0,0-2.052,3l-.715,4.324a7.565,7.565,0,0,0,3.384,7.251l129.483,71.219c2.274,1.26,4.444.053,4.846-2.69l.715-4.325a7.572,7.572,0,0,0-3.391-7.254Zm-72.1,16.752a7.572,7.572,0,0,1,3.389,7.254l-.715,4.324c-.4,2.742-2.57,3.949-4.846,2.689L6450.3,920.96a7.566,7.566,0,0,1-3.384-7.251l.714-4.322a3.579,3.579,0,0,1,2.054-3.007,3.252,3.252,0,0,1,2.788.312l65.12,35.054Zm68.234,9.707a7.567,7.567,0,0,1,3.389,7.254l-.713,4.324c-.4,2.744-2.572,3.95-4.848,2.691L6454.167,894.5a7.565,7.565,0,0,1-3.384-7.251l.715-4.323a3.574,3.574,0,0,1,2.052-3.006,3.253,3.253,0,0,1,2.79.311Z" transform="translate(-6323.815 -530.007)"/>
  <path id="Path_120" data-name="Path 120" class="cls-17" d="M6697.623,390.9l-40.493-19.575-15.981,100.007-2.058,14.05,42.1,22.719c7.314,4.053,14.3.17,15.587-8.652l11.743-85.212C6709.819,405.414,6704.937,394.954,6697.623,390.9Z" transform="translate(-6439.895 -239)"/>
  <path id="Path_121" data-name="Path 121" class="cls-14" d="M6632.25,373.083,6619.632,454.6l1.32.161,3.6-1.4c3.946-1.554,6.017-5.663,6.6-9.658l10.419-74.26a.267.267,0,0,0,.005-.04,24.747,24.747,0,0,0-4.129-16.762,19.5,19.5,0,0,0-6.78-6.538l-77.436-42.08a10.548,10.548,0,0,0-8.974-1l-3.173,1.24c-1.6.6-2.09,1.081-2.079,1.179C6540.5,319.4,6634.352,358.762,6632.25,373.083Z" transform="translate(-6379.459 -197.401)"/>
  <path id="Path_122" data-name="Path 122" class="cls-18" d="M6603.256,349.7l-77.433-42.081a10.455,10.455,0,0,0-8.969-1.005c-3.362,1.309-5.878,4.711-6.6,9.668l-10.419,74.262c-1.293,8.824,3.571,19.272,10.884,23.328l77.437,42.081c7.314,4.053,14.3.17,15.587-8.652l10.418-74.264C6615.454,364.21,6610.57,353.75,6603.256,349.7Z" transform="translate(-6355.682 -199.562)"/>
  <path id="Path_123" data-name="Path 123" class="cls-19" d="M6600.461,457.519l-77.795-41.757c-1.795-.964-3.508.029-3.857,2.255a5.777,5.777,0,0,0,2.623,5.655l77.792,41.755c1.793.965,3.543-.014,3.891-2.242a5.831,5.831,0,0,0-2.653-5.668Zm3.477-22.606a5.831,5.831,0,0,1,2.653,5.668c-.347,2.228-2.1,3.206-3.89,2.242l-77.792-41.756a5.772,5.772,0,0,1-2.622-5.654c.348-2.227,2.061-3.219,3.857-2.255l77.793,41.756Zm8-51.262L6534.146,341.9c-1.792-.966-3.509.028-3.842,2.18l-.867,5.529a5.786,5.786,0,0,0,2.625,5.653l77.793,41.756c1.792.96,3.538-.013,3.877-2.166l.862-5.53a5.823,5.823,0,0,0-2.654-5.667Zm-4.5,28.835a5.782,5.782,0,0,1,2.661,5.633c-.357,2.267-2.1,3.2-3.888,2.239L6528.417,378.6a5.72,5.72,0,0,1-2.631-5.611c.357-2.265,2.067-3.22,3.859-2.261Z" transform="translate(-6367.232 -221.007)"/>
  <path id="Path_124" data-name="Path 124" class="cls-14" d="M7424.317,1079.518l-9.2,56.773,1.435.174,3.915-1.52c4.292-1.691,6.543-6.159,7.172-10.5l6.814-48.881a.255.255,0,0,0,.006-.043,26.91,26.91,0,0,0-4.49-18.227,21.211,21.211,0,0,0-7.374-7.11l-60.112-33a11.465,11.465,0,0,0-9.757-1.09l-3.451,1.348c-1.737.653-2.273,1.174-2.262,1.282C7348.636,1033.907,7426.6,1063.946,7424.317,1079.518Z" transform="translate(-6867.343 -627.929)"/>
  <path id="Path_125" data-name="Path 125" class="cls-20" d="M7399.672,1054.088l-60.109-33c-3.487-1.932-6.9-2.2-9.753-1.094-3.655,1.424-6.391,5.123-7.181,10.512l-6.813,48.884c-1.406,9.595,3.882,20.957,11.836,25.367l60.112,33c7.956,4.408,15.546.186,16.952-9.407l6.813-48.886C7412.935,1069.871,7407.625,1058.5,7399.672,1054.088Z" transform="translate(-6848.371 -630.281)"/>
  <path id="Path_127" data-name="Path 127" class="cls-20" d="M6928.482,1108.114c1.081-7.39,6.709-10.656,12.57-7.278l87.124,49.127c5.854,3.374,9.733,12.115,8.652,19.5l-11.588,78.866c-1.082,7.389-6.716,10.652-12.572,7.278l-87.123-49.127c-5.862-3.378-9.734-12.116-8.654-19.5Z" transform="translate(-6607.524 -678.683)"/>
  <g id="Group_81" data-name="Group 81" transform="translate(331.558 467.725)">
    <path id="Path_128" data-name="Path 128" class="cls-21" d="M6973.178,1259.99l30.392-42.1,5.893,44.642,14.806-16.094,8.719,47.736Z" transform="translate(-6973.178 -1217.892)"/>
    <path id="Path_129" data-name="Path 129" class="cls-22" d="M7089.916,1222.456c3.25.662,5.7,4.466,5.464,8.5s-3.054,6.762-6.3,6.1-5.7-4.466-5.465-8.5S7086.665,1221.794,7089.916,1222.456Z" transform="translate(-7039.85 -1220.588)"/>
  </g>
  <path id="Path_130" data-name="Path 130" class="cls-23" d="M6949.38,1138.822c.9-6.14,5.575-8.854,10.444-6.047l72.39,40.819c4.865,2.8,8.087,10.066,7.188,16.206l-9.628,65.528c-.9,6.139-5.579,8.85-10.446,6.047l-72.388-40.819c-4.87-2.806-8.087-10.067-7.19-16.207Z" transform="translate(-6621.345 -698.104)"/>
  <path id="Path_131" data-name="Path 131" class="cls-20" d="M7225.255,1280.481c1.081-7.39,6.708-10.656,12.57-7.277l87.124,49.127c5.855,3.374,9.733,12.115,8.653,19.5l-11.588,78.866c-1.081,7.389-6.716,10.652-12.572,7.278l-87.123-49.127c-5.862-3.377-9.733-12.115-8.653-19.5Z" transform="translate(-6786.719 -782.76)"/>
  <g id="Group_84" data-name="Group 84" transform="translate(449.137 536.015)">
    <path id="Path_132" data-name="Path 132" class="cls-24" d="M7269.953,1432.357l30.392-42.1,5.894,44.641,14.805-16.094,8.719,47.736Z" transform="translate(-7269.953 -1390.26)"/>
    <path id="Path_133" data-name="Path 133" class="cls-22" d="M7386.69,1394.823c3.25.661,5.7,4.466,5.464,8.5s-3.054,6.762-6.3,6.1-5.7-4.466-5.464-8.5S7383.44,1394.162,7386.69,1394.823Z" transform="translate(-7336.625 -1392.956)"/>
  </g>
  <path id="Path_134" data-name="Path 134" class="cls-25" d="M7246.155,1311.189c.9-6.14,5.574-8.854,10.443-6.047l72.39,40.819c4.865,2.8,8.087,10.066,7.189,16.206l-9.629,65.528c-.9,6.14-5.579,8.851-10.445,6.047l-72.39-40.819c-4.87-2.806-8.087-10.067-7.189-16.206Z" transform="translate(-6800.541 -802.181)"/>
  <path id="Path_135" data-name="Path 135" class="cls-26" d="M6904.118,279.874c-7.754,4.551-4.04,15.067,3.007,26.183,10,15.773-14.2,33.526,18.688,42.508-3.426-9.625,10.827-13.148,17.829-26.293,8.08-15.166,3.6-30.379-6.78-43.334C6928.41,268.387,6912.946,268.522,6904.118,279.874Z" transform="translate(-6597.311 -178.536)"/>
  <path id="Path_136" data-name="Path 136" class="cls-27" d="M6948.94,524.1l1.9,7.148c.6,1.532.953,1.944,3.154.952,1.2-.583.822-3.086.491-4.913a10.722,10.722,0,0,1,.083-4.513,3.689,3.689,0,0,1,1.38-1.88c1.313-1.056,2.851-1.761,1.9-5.115a17.39,17.39,0,0,1-.412-4.875l-4.583-.3c.1,4.089-1.711,6.847-3.6,10.287C6948.336,522.554,6948.537,522.242,6948.94,524.1Z" transform="translate(-6626.779 -323.098)"/>
  <path id="Path_137" data-name="Path 137" class="cls-28" d="M6961.874,374.548l-.033-.229a3.964,3.964,0,0,0-.145-.984c-1.164-7.775-3.531-20.877-5.375-27.711-3.219-11.933-13.429-7.809-13.324-.687.1,6.737,6.367,21.327,7.81,27.648-.514,4.606-2.436,27.606-1.77,31.623a8.8,8.8,0,0,1,.425,2.107,7.672,7.672,0,0,1-.39,1.661c1.8.239,3.607.494,5.381.912a11.169,11.169,0,0,1,.27-1.79c.307-.866,1.1-1.308,1.458-2.042,1.761-3.6,4.67-22.509,5.472-28.663A7.593,7.593,0,0,0,6961.874,374.548Z" transform="translate(-6623.396 -218.926)"/>
  <path id="Path_138" data-name="Path 138" class="cls-29" d="M6960.652,391.752a36.089,36.089,0,0,0,1.45-9.081c-.017-4.739-1.808-8.66-2.361-11.669l-16.559-16.481c.105,3.086,3.708,11.309,5.184,17.38C6950.668,381.37,6955.681,389.525,6960.652,391.752Z" transform="translate(-6623.508 -228.853)"/>
  <path id="Path_139" data-name="Path 139" class="cls-30" d="M7011.585,380.783c-2.334,7.717-13.3,13.8-24.277,11.382-2.623-2.916-3.4-2.009-5.8-4.361-2.184-2.14-4.877-5.066-8.646-8.888-2.1-3.289-10.361-4.634-14.009-6.065-4.12-1.616-7.776-4.984-9.479-11.529-.826-3.174-4.423-12.887-5.716-16.124-3.741-9.36,4.372-12.857,9.858-9.392,3.512,1.466,11.259,3.306,15.088,4.02a63.547,63.547,0,0,0,6.694.995c4.557.441,9.506,3.767,13.044,6.585C6997.853,354.977,7010.752,370.2,7011.585,380.783Z" transform="translate(-6623.22 -216.761)"/>
  <path id="Path_140" data-name="Path 140" class="cls-31" d="M6966.925,328.272a23.262,23.262,0,0,0,6.529,11.014c-1.161,4.154-9.092,7.15-11.615,4.342a14.743,14.743,0,0,0-.734-2.2c-.417-1.218-.832-2.287-1.186-3.142Z" transform="translate(-6633.615 -213.004)"/>
  <path id="Path_141" data-name="Path 141" class="cls-32" d="M6919.471,314.25a13.459,13.459,0,0,0,4.119,8.539,3.968,3.968,0,0,1,1.147,1.908c1.032,3.773,1.844,4.543,4.263,6.267,2.353,1.678,3.234,2.839,4.576,2.98a5.553,5.553,0,0,0,3.66-1.325c2.066-1.479,4.384-5.528,5.471-8.2.806-1.982.306-2.479-.2-4.359.6-3.459-1.8-3.678-2.593-3.251-2.285,1.226-.75,3.758-1.509,5.214C6930.368,323.8,6922.059,316.6,6919.471,314.25Z" transform="translate(-6609.191 -204.538)"/>
  <path id="Path_142" data-name="Path 142" class="cls-33" d="M6919.471,314.25c4.462,7.428,14.285,9.3,18.929,7.773C6930.368,323.8,6922.059,316.6,6919.471,314.25Z" transform="translate(-6609.191 -204.538)"/>
  <path id="Path_143" data-name="Path 143" class="cls-29" d="M7021.357,405.024a1.7,1.7,0,0,1-.2.04c-1.214-.8-2.1-.9-3.721-2.494-2.182-2.14-4.876-5.066-8.646-8.888-1.068-1.676-3.738-2.847-6.583-3.783.449-7.684.25-25.243,2.772-27.528,3.475-3.152,8.259-5.249,12.253-1.145C7024.769,368.97,7017.264,397.637,7021.357,405.024Z" transform="translate(-6659.147 -231.526)"/>
  <path id="Path_144" data-name="Path 144" class="cls-9" d="M7016.432,469.44l-4.776-17.967,3.3-2.94,30.136,16.915-2.8,3.145L7029.2,477.35Z" transform="translate(-6664.854 -285.619)"/>
  <path id="Path_145" data-name="Path 145" class="cls-14" d="M7008.343,445.392l-2.2-7.014,37.609,20.875-4.844,3.242Z" transform="translate(-6661.526 -279.488)"/>
  <path id="Path_146" data-name="Path 146" class="cls-34" d="M6828.148,538.139c1.952-14.4,12.874-20.594,24.393-13.814l118.98,69.468c11.508,6.773,19.271,23.962,17.321,38.358l-18.134,137.223c-1.95,14.394-12.885,20.586-24.4,13.815l-118.977-69.469c-11.521-6.779-19.273-23.963-17.323-38.356Z" transform="translate(-6542.916 -329.724)"/>
  <path id="Path_147" data-name="Path 147" class="cls-14" d="M6840.786,537.93c.211-1.555.518-8.508,2.386-9.921,2.517-1.909,7.111-4.683,8.472-5.048,3.543-.947,7.633-.324,11.809,2.133l111.179,64.427c10.692,6.293,17.908,22.267,16.094,35.643l-16.851,127.51a20.527,20.527,0,0,1-4.621,11.036c-1.582,1.775-5.277,4.259-8.358,5.851-3.185,1.647-7.667-2.861-9.688-4.051l-111.176-64.428c-10.708-6.3-17.91-22.267-16.1-35.641Z" transform="translate(-6551.337 -330.305)"/>
  <path id="Path_148" data-name="Path 148" class="cls-20" d="M6830.908,544.829c1.813-13.377,11.962-19.137,22.667-12.837l110.556,64.552c10.693,6.293,17.908,22.266,16.095,35.642l-16.85,127.51c-1.812,13.375-11.973,19.129-22.668,12.836l-110.554-64.552c-10.708-6.3-17.91-22.267-16.1-35.641Z" transform="translate(-6545.371 -334.471)"/>
  <path id="Path_149" data-name="Path 149" class="cls-35" d="M6854.354,544.829c1.813-13.377,11.962-19.137,22.666-12.837l110.557,64.552c10.692,6.293,17.908,22.266,16.095,35.642l-1.725,12.668-149.34-87.2Z" transform="translate(-6568.818 -334.471)"/>
  <g id="Group_94" data-name="Group 94" transform="translate(298.638 210.758)">
    <path id="Path_150" data-name="Path 150" class="cls-20" d="M6894.759,569.4c2.436.577,4.3,3.495,4.155,6.516s-2.229,5-4.665,4.425-4.3-3.495-4.155-6.517S6892.323,568.818,6894.759,569.4Z" transform="translate(-6890.087 -569.295)"/>
    <path id="Path_151" data-name="Path 151" class="cls-20" d="M6927.564,589.846c2.436.578,4.295,3.5,4.154,6.517s-2.229,5-4.664,4.425-4.295-3.495-4.155-6.516S6925.13,589.268,6927.564,589.846Z" transform="translate(-6909.896 -581.643)"/>
    <path id="Path_152" data-name="Path 152" class="cls-20" d="M6960.37,610.3c2.436.577,4.294,3.5,4.154,6.517s-2.229,5-4.665,4.425-4.3-3.495-4.155-6.516S6957.934,609.719,6960.37,610.3Z" transform="translate(-6929.703 -593.992)"/>
  </g>
  <g id="Group_98" data-name="Group 98" transform="translate(331.657 272.314)">
    <g id="Group_97" data-name="Group 97" class="cls-36" transform="translate(0 0)">
      <path id="Path_155" data-name="Path 155" class="cls-37" d="M6980.654,728.043c.4-2.975,2.655-4.221,5.03-2.776l72.263,41.653a8.694,8.694,0,0,1,3.569,8.005l-.782,5.885c-.4,2.974-2.658,4.219-5.03,2.776l-72.264-41.655a8.693,8.693,0,0,1-3.568-8Z" transform="translate(-6977.282 -724.665)"/>
      <path id="Path_156" data-name="Path 156" class="cls-37" d="M6973.926,784.785c.238-1.757,1.568-2.492,2.972-1.64l42.671,24.6a5.135,5.135,0,0,1,2.108,4.728l-.462,3.475c-.238,1.757-1.57,2.491-2.971,1.639l-42.672-24.6a5.131,5.131,0,0,1-2.107-4.727Z" transform="translate(-6973.428 -759.761)"/>
    </g>
  </g>
  <g id="Group_99" data-name="Group 99" class="cls-36" transform="translate(278.145 300.396)">
    <path id="Path_157" data-name="Path 157" class="cls-37" d="M6852.281,798c.292-2.166,1.933-3.074,3.663-2.021l124.8,71.6a6.331,6.331,0,0,1,2.6,5.83l-.388,2.838c-.294,2.166-1.936,3.073-3.665,2.022l-124.8-71.6a6.328,6.328,0,0,1-2.6-5.83Z" transform="translate(-6846.504 -795.545)"/>
    <path id="Path_158" data-name="Path 158" class="cls-37" d="M6845.7,851.01c.293-2.166,1.933-3.074,3.663-2.021l124.8,71.6a6.335,6.335,0,0,1,2.6,5.83l-.388,2.837c-.293,2.167-1.936,3.073-3.665,2.023l-124.8-71.6a6.324,6.324,0,0,1-2.6-5.83Z" transform="translate(-6842.527 -827.55)"/>
    <path id="Path_159" data-name="Path 159" class="cls-37" d="M6838.8,901.5c.293-2.166,1.934-3.074,3.663-2.022l124.8,71.6a6.337,6.337,0,0,1,2.6,5.831l-.388,2.837c-.294,2.166-1.936,3.073-3.666,2.022l-124.8-71.6a6.328,6.328,0,0,1-2.6-5.83Z" transform="translate(-6838.361 -858.039)"/>
  </g>
  <path id="Path_160" data-name="Path 160" class="cls-14" d="M7223.4,514.717c.4-2.775-1.451-4.914-.247-6.752,1.3-1.986,5.729-3.409,7.643-4.1,2.716-.979,5.912-.66,9.167,1.2L7372.7,580.962c7.75,4.434,12.917,15.96,11.527,25.719l-14.9,104.144c-.681,4.782-2.811,8.259-5.719,10.039-1.777,1.088-6.641,3.169-8.844,2.9-1.55-.188-.372-2.359-2-3.292L7220.023,644.58c-7.759-4.439-12.917-15.96-11.528-25.718Z" transform="translate(-6783.57 -318.703)"/>
  <path id="Path_161" data-name="Path 161" class="cls-38" d="M7213.358,518.721c1.389-9.759,8.805-14.089,16.564-9.649l132.74,75.894c7.75,4.434,12.917,15.96,11.527,25.718l-14.9,104.145c-1.39,9.757-8.815,14.082-16.566,9.649l-132.74-75.894c-7.759-4.438-12.917-15.96-11.528-25.718Z" transform="translate(-6777.51 -321.12)"/>
  <path id="Path_162" data-name="Path 162" class="cls-39" d="M7209.771,809.519c.121-.847.763-1.209,1.434-.805l147.219,84.415a2.434,2.434,0,0,1,1,2.266l-.391,2.57c-.121.847-.764,1.208-1.434.8l-147.22-84.415a2.426,2.426,0,0,1-1-2.266Z" transform="translate(-6784.23 -503.001)"/>
  <path id="Path_163" data-name="Path 163" class="cls-6" d="M7209.972,809.774c.117-.817.737-1.166,1.383-.776l59.383,34.039a2.345,2.345,0,0,1,.962,2.185l-.376,2.479c-.117.817-.736,1.165-1.382.777l-59.383-34.04a2.341,2.341,0,0,1-.962-2.185Z" transform="translate(-6784.359 -503.176)"/>
  <path id="Path_164" data-name="Path 164" class="cls-40" d="M7348.986,680.591c.33-2.322,2.094-3.352,3.94-2.3l40.866,23.374a6.453,6.453,0,0,1,2.742,6.119l-5.514,38.883c-.33,2.322-2.1,3.351-3.942,2.3l-40.864-23.374a6.453,6.453,0,0,1-2.743-6.119Z" transform="translate(-6865.175 -424.102)"/>
  <path id="Path_167" data-name="Path 167" class="cls-41" d="M6980.032,528.6c-1.158,1.938-.549,6.133-.925,8.128a32.622,32.622,0,0,1-1.774,5.829c-.245.515-7.942,7.351-8.389,7.007-1.015-.783-1.674-6.181-.342-7.751,1.358-1.6,2.458-3.1,2.684-4.387.229-1.309.153-5.553.71-6.211,1.263-1.492,2.582-1.966,3.146-3.828Z" transform="translate(-6638.405 -333.232)"/>
  <path id="Path_168" data-name="Path 168" class="cls-42" d="M7005.05,400.47a11.371,11.371,0,0,0,.289-1.353c2-8.289,4.041-22.473,3.78-30.69-.2-6.275-3.254-11.587-10.616-9.542-2.263.628-4.882,2.349-5.215,5.328-.4,3.568.129,9.49.467,15.541.27,4.836.246,13.558.431,17.094-.031.108-.062.217-.091.33a191.207,191.207,0,0,0-8.994,24.987,9.573,9.573,0,0,0-.021,2.3,4.254,4.254,0,0,1-.595,1.847,11.175,11.175,0,0,0,5.046,2.6,13.532,13.532,0,0,1,1.031-1.819c.318-.487,1.793-.949,2.368-1.636,3.05-3.654,11.1-20.365,12.085-24.809C7005.029,400.588,7005.04,400.529,7005.05,400.47Z" transform="translate(-6648.448 -231.22)"/>
  <path id="Path_169" data-name="Path 169" class="cls-6" d="M6729.919,1478.151l66.833-38.062c7.285-3.329,17.713-5.979,25.136-2.116,6.763,3.52,17.9,10.724,22.83,13.533,3.742,2.134,16.733,9.917,8.642,14.316-23.8,12.942-47.352,27.5-71.519,40.643-4.571,2.486-11.257,3.384-18.276,2.8a48.381,48.381,0,0,1-19.794-5.9q-6.026-3.5-11.852-6.9c-5.242-3.052-8.022-6.662-8.3-10C6723.353,1483.214,6725.447,1480.193,6729.919,1478.151Z" transform="translate(-6490.921 -881.899)"/>
  <g id="Group_108" data-name="Group 108" transform="translate(257.72 583.861)">
    <path id="Path_170" data-name="Path 170" class="cls-20" d="M6792.923,1533.14c1.308-.029,5.718-4.174,9.895-2.081,5.016,2.514,14.542.287,19.348,1.442.857.205,2.531-.424,2.861.163,1.037,1.841,2.04,4.6-.508,6.4a43.591,43.591,0,0,1-8.519,4.014,71.865,71.865,0,0,1-10.778,3.051c-3.549.555-5.167.784-6.5,1.809a9.456,9.456,0,0,1-4.955,1.192,8.35,8.35,0,0,1-6.317-4.41c-.4-.853-.411-4.579.049-7a35.284,35.284,0,0,1,2.235-6.106Z" transform="translate(-6787.016 -1522.765)"/>
    <path id="Path_171" data-name="Path 171" class="cls-43" d="M6807.2,1512.484c-1.588,3.81-1.1,9.706-4.861,11.752-2.513,1.368-6.451,1.38-8.167-2.526-.957-2.179.313-5.9.032-10.686Z" transform="translate(-6791.036 -1511.024)"/>
    <path id="Path_172" data-name="Path 172" class="cls-44" d="M6804.018,1524.649c2.881.838,10.838.279,15.869.685,2.162.176,4.1.159,5.112,2.122.93,1.806.443,3.353-1.664,4.843a35.663,35.663,0,0,1-7.686,3.771,72.086,72.086,0,0,1-10.777,3.05c-3.548.555-5.168.784-6.5,1.809a9.455,9.455,0,0,1-4.955,1.193,8.726,8.726,0,0,1-6.318-4.689c-.4-.853-.41-4.3.05-6.717a12.439,12.439,0,0,1,.369-1.423c.4-3.786,1.646-5.316,2.824-4.668,1.613.888,2.222,2.484,2.836,3.8a3.7,3.7,0,0,0,2.192,2.09c1.929.608,3.691-.468,4.83-2.123a13.63,13.63,0,0,0,1.324-3.835c.005-.129.008-.258.005-.385.378-3.309,1.988-3.021,1.744-2.323A2.847,2.847,0,0,0,6804.018,1524.649Z" transform="translate(-6786.806 -1517.288)"/>
    <path id="Path_173" data-name="Path 173" class="cls-20" d="M6880.659,1534.6c-.039,1.28,1.922,1.4,1.356,3.648.943-.924-.373-3.576-.955-3.979C6880.822,1534.1,6880.618,1534.034,6880.659,1534.6Z" transform="translate(-6843.472 -1524.988)"/>
  </g>
  <g id="Group_109" data-name="Group 109" transform="translate(290.225 568.352)">
    <path id="Path_174" data-name="Path 174" class="cls-20" d="M6878.63,1486.407c1.217-.478,3.935-5.887,8.574-5.359a23.606,23.606,0,0,0,7.94-1.144c4.874-1.385,11.664-5.741,12.822-5.028,2.524,1.553,2.726,4.385.954,6.954a35.666,35.666,0,0,1-5.919,6.185c-2.282,1.89-5.519,4.781-8.355,6.354-2.68,1.487-3.57,1.355-5.478,3.933a8.949,8.949,0,0,1-4.242,2.685c-2.786.544-6.832-1.245-8.288-3.112-.926-3-2.533-5.834-1.5-10.332Z" transform="translate(-6872.445 -1473.641)"/>
    <path id="Path_175" data-name="Path 175" class="cls-43" d="M6881.473,1471.88c-.075,4.126,2.547,9.43-.2,12.716-1.834,2.2-5.492,3.655-8.524.654-1.69-1.676-1.877-5.6-3.9-9.95Z" transform="translate(-6868.852 -1471.88)"/>
    <path id="Path_176" data-name="Path 176" class="cls-44" d="M6893,1477.94c.278-.072.555-.148.834-.228,4.872-1.385,11.385-4.742,12.542-4.03,2.525,1.553,3.005,3.386,1.232,5.955a35.593,35.593,0,0,1-5.919,6.185c-2.28,1.89-5.519,4.781-8.354,6.354-2.68,1.486-3.569,1.355-5.477,3.933a8.961,8.961,0,0,1-4.241,2.685c-2.787.544-6.956-1.261-8.412-3.129-.688-2.231-1.632-4.355-1.708-7.159-.406-3.67-.154-5.537,1.443-5.491,2.97.086,4.2,1.651,5.423,2.417,2.642,1.648,4.411-.481,4.843-3.115a15.361,15.361,0,0,0-.242-3.48c-.041-.123-.086-.244-.136-.361-.864-3.217.738-3.539.768-2.8a2.757,2.757,0,0,0,2.45,2.809C6889.661,1478.727,6891.7,1478.052,6893,1477.94Z" transform="translate(-6871.556 -1472.909)"/>
    <path id="Path_177" data-name="Path 177" class="cls-20" d="M6955.8,1474.127c.517,1.171,2.337.436,2.793,2.708.454-1.24-1.875-3.066-2.575-3.179C6955.731,1473.609,6955.518,1473.635,6955.8,1474.127Z" transform="translate(-6921.272 -1472.942)"/>
  </g>
  <g id="Group_110" data-name="Group 110" transform="translate(271.338 444.294)">
    <path id="Path_178" data-name="Path 178" class="cls-45" d="M6849.881,1171.346c1.068,11.958,7.06,50.15,5.394,60.636-2.507,15.766-1.792,34.815-1.764,51.549-.423,7.031-10.091,10.705-12.9,6.238-2.259-14.953-5.473-28.053-6.78-36.363-1.465-9.3-.98-20.61,1.38-26.726-.968-6.68-5.523-23.914-9.328-35.856-1.374-4.31-9.153-18.233-1.1-32.074Z" transform="translate(-6821.179 -1158.75)"/>
    <path id="Path_179" data-name="Path 179" class="cls-46" d="M6882.388,1462.373c.008,1.241-.039,3.132-.036,4.349-.424,7.032-10.213,10.845-13.027,6.377-.167-1.1-.408-2.195-.583-3.275C6872.527,1473.9,6879.941,1468.605,6882.388,1462.373Z" transform="translate(-6849.898 -1342.081)"/>
    <path id="Path_180" data-name="Path 180" class="cls-4" d="M6870.292,1248.959c-3.152,15.811-12.068,36.932-16.936,52.83-2.534-13.621-8.874-36.818-3.391-51.016-.55-3.8-2.266-11.032-4.343-18.755,4.219-8,.187-14.383,2.179-25.647,11.169-1.946-5.688-15.579,17.948-1.221C6867.864,1222.117,6869.849,1232.786,6870.292,1248.959Z" transform="translate(-6835.939 -1182.843)"/>
  </g>
  <g id="Group_111" data-name="Group 111" transform="translate(259.464 451.541)">
    <path id="Path_181" data-name="Path 181" class="cls-47" d="M6831.37,1250.909c-6.444,14.587-18.332,43.2-24.656,61.105-3.271,4.754-14.935,4.259-14.912-.175,2.575-14.968,5.6-38.053,10.975-51.181,1.645-4.017,7.712-13.685,9.9-16.553,1.7-6.607,3.831-24.449,5.475-34.1-1.474-7.989-7.918-21.348,4.461-32.957,5,3.553,20.442,5.776,27.445,1.819C6851.188,1210.421,6843.442,1223.581,6831.37,1250.909Z" transform="translate(-6791.567 -1177.044)"/>
    <path id="Path_182" data-name="Path 182" class="cls-48" d="M6807.667,1509.84c-.282.782-.842,2.363-1.106,3.112-3.368,4.894-15.375,4.385-15.353-.181q.191-1.11.386-2.275C6794.456,1513.415,6803.114,1513.453,6807.667,1509.84Z" transform="translate(-6791.208 -1377.99)"/>
  </g>
  <g id="Group_113" data-name="Group 113" transform="translate(319.397 280.716)">
    <path id="Path_183" data-name="Path 183" class="cls-49" d="M6961.858,747.162c-.458.967-.9,1.944-1.376,2.9L6958.512,754c-.421-1.933-1.963-2.672-3.149-1.7a3.379,3.379,0,0,0-.96,1.289c-.189-.527-1.682-1.716-3.7,1.152a2.214,2.214,0,0,0-2.453,1.414,15.964,15.964,0,0,0-.847,2.066,8.289,8.289,0,0,0-.588,2.8c.013,1.9.1,3.963.04,6.233-.058,2.464-2.854,5.585-4.371,7.383l9.147,2.9a51.326,51.326,0,0,1,3.563-4.453c1.437-1.454,3.252-1.628,4.62-2.751a17.558,17.558,0,0,0,2.509-3.3c1.08-1.528,1.67-3.179,2.7-4.85,1-1.73.94-1.349,1.042-3.29a35.4,35.4,0,0,1,.687-3.887c-1.879-.937-3.36,1.383-3.346,3.645a5.61,5.61,0,0,0-2.028,2.752c-1.494-1.954-.6-2.771,0-5.281a25.2,25.2,0,0,0,2.153-5.036c.292-.773.583-1.574.9-2.439a2.424,2.424,0,0,0-.545-2.68C6963.529,745.74,6962.623,745.844,6961.858,747.162Z" transform="translate(-6942.483 -745.873)"/>
    <path id="Path_184" data-name="Path 184" class="cls-50" d="M6975.676,765.359c-1.335.193-2.279,2.035-2.268,3.841a5.472,5.472,0,0,0-1.975,2.614,12.406,12.406,0,0,1,2.4-2.393,5.729,5.729,0,0,1,1.838-4.062Zm-6.989-1.147-.17.34a3.49,3.49,0,0,0-.5-1.212,4.895,4.895,0,0,1-1.305,2.9,3.265,3.265,0,0,0,1.972-2.03Zm-4.291-.1a1.136,1.136,0,0,0-.484-.492,7.742,7.742,0,0,1-1.027,2.622,4.391,4.391,0,0,0,1.512-2.129Zm-3.646,1.123-.042.059a3.162,3.162,0,0,0-.586-.013,5.952,5.952,0,0,1-1.068,2.931A4.741,4.741,0,0,0,6960.75,765.236Z" transform="translate(-6952.489 -756.42)"/>
  </g>
  <path id="Path_185" data-name="Path 185" class="cls-51" d="M6852.125,835c4.6-8.024,8.209-18.073,14.643-26.222.538-.679,1.8-1.2,2.261-1.914q1.008-1.556,2.006-3.056a14.269,14.269,0,0,1,9.261,4.174q-.541,1.612-1.065,3.208c-.406,1.24.375,3.89.021,5.129a206.458,206.458,0,0,1-11.281,30.733c-6.381,8.231-34.738,61.069-49.564,41.9-1.334-6.82.473-12.493,3.9-18.012,1.9-3.055,4.786-5.719,6.728-7.734C6833.7,858.368,6845.127,842.22,6852.125,835Z" transform="translate(-6547.901 -500.139)"/>
  <path id="Path_186" data-name="Path 186" class="cls-52" d="M6820.441,1017.391c1.038,9.357-1.775,18.558,1.089,27.1.127.882.209,4.346.36,5.287,1.886,11.066,25.293,22.263,44.813,11.645.108-1.372-.016-2.806.09-5.347-.361-2.373.664-4.918.659-6.365-.029-6.021-1.9-9.1-1-15.8,1.829-13.633,9.38-26.735,5.2-37.46-.9-2.3-2.467-3.418-4.247-4.848-4.613-3.706-28.473-15.856-35.705-16.713C6810.7,972.168,6819.315,1007.241,6820.441,1017.391Z" transform="translate(-6547.766 -603.349)"/>
  <path id="Path_187" data-name="Path 187" class="cls-53" d="M6926.842,1048.464c2.708-10.018,6.244-19.475,3.089-27.577-.9-2.3-2.468-3.418-4.248-4.848-4.612-3.707-4,6.26-11.234,5.4C6913.057,1034.76,6919.642,1046.874,6926.842,1048.464Z" transform="translate(-6606.045 -627.785)"/>
  <path id="Path_188" data-name="Path 188" class="cls-32" d="M6861.9,918.312a51.483,51.483,0,0,0,.532,11.49c-6.839-.223-16.343-2.011-17.38-7.1.049-.611.092-1.229.123-1.838a2.355,2.355,0,0,0-.279-.219c-2.451-1.631-6.508-2.841-9.117-5.823-4.166-4.765-6.381-11.167-3.111-17.61,5.972-11.766,20.418-11.966,28.464-2.452,1.57,1.858.419,3.781,1.314,5.576.175.351.817.506,1.563,1.122,1.031.851,4.032,8.206,3.954,12.045-.031,1.546-3.584,3.724-5.161,4.578A4.171,4.171,0,0,1,6861.9,918.312Z" transform="translate(-6555.828 -550.958)"/>
  <path id="Path_189" data-name="Path 189" class="cls-54" d="M6880.211,956.707a51.4,51.4,0,0,0,.532,11.49c-6.839-.223-16.344-2.011-17.381-7.1.049-.611.092-1.229.124-1.838-.094-.083-.2-.142-.279-.219-5.2-4.865,1.753-10.441,10.54-5.637A6.811,6.811,0,0,0,6880.211,956.707Z" transform="translate(-6574.139 -589.353)"/>
  <path id="Path_190" data-name="Path 190" class="cls-55" d="M6906.591,918.037c-.031.675-2.829,1.694-4,1.852.8-7.268-6.12-8.379-5.078-15.475.626-4.264-3.76-5.807-2.039-8.929a19.89,19.89,0,0,1,4.285,3.809c1.571,1.858.42,3.782,1.315,5.576.175.351.817.506,1.563,1.122C6903.669,906.843,6906.77,914.2,6906.591,918.037Z" transform="translate(-6594.458 -555.494)"/>
  <g id="Group_115" data-name="Group 115" transform="translate(300.391 357.907)">
    <path id="Path_191" data-name="Path 191" class="cls-56" d="M6896.828,942.389c-.134-1.627-.792-1.939-1.339-1.507a4.367,4.367,0,0,0-.946,3.557c.265,2.7,2.768,5.119,4.492,2.935-1.886,1-2.774-1.418-2.855-3.125C6896.126,943.09,6896.419,942.117,6896.828,942.389Z" transform="translate(-6894.512 -940.706)"/>
    <path id="Path_192" data-name="Path 192" class="cls-57" d="M6898.792,947.579c1,.76,1.467,1.273,1.45,1.7-.01.3-.258.743-1.141.431A3.835,3.835,0,0,1,6898.792,947.579Z" transform="translate(-6897.077 -944.856)"/>
  </g>
  <path id="Path_193" data-name="Path 193" class="cls-6" d="M6860.639,975.162c-2.025.624-3.916,2.705-3.545,4.04,2.015,8.233,17.1,10.071,26.488,8.088.114-.024-3.513-4.818-5.309-5.4C6872.368,982.467,6862.459,980.023,6860.639,975.162Z" transform="translate(-6571.498 -603.604)"/>
  <g id="Group_116" data-name="Group 116" transform="translate(274.58 331.669)">
    <path id="Path_194" data-name="Path 194" class="cls-58" d="M6843.195,913.858c-2.5-2.669-6.733-3.945-9.451-7.051-2.678-3.063-5.613-7.765-3.821-12.594-3.155-9.923,7.628-17.791,16.709-19.58a7.054,7.054,0,0,1,7.56,10.4,9.514,9.514,0,0,1,2.185,7.254c-.519,2.832-.446,3.19.46,5.311.715,1.674,2.5,5.721-.729,3.159-2.085-1.656-3.545,2-2.839,4.533a11.56,11.56,0,0,1,.454,4.892C6853.115,915.5,6844.587,915.344,6843.195,913.858Z" transform="translate(-6829.362 -874.48)"/>
    <path id="Path_195" data-name="Path 195" class="cls-59" d="M6838,890.715c-2.151-9.61,10.483-14.476,15.427-14.589,5-.116,8.921,8.114,2.99,10.886C6852.378,888.9,6844.371,885.2,6838,890.715Z" transform="translate(-6834.432 -875.473)"/>
  </g>
  <path id="Path_196" data-name="Path 196" class="cls-60" d="M7081.987,933.943a6.584,6.584,0,0,0-.407,1.942,15.638,15.638,0,0,0-.94,2.948,27.465,27.465,0,0,0-.239,4.851,10.71,10.71,0,0,0,.422,2.982c-1.212,2.373-3.122,3.832-4.9,5.79l5.777,4.406c2.437-1.607,4.341-3.3,6.438-4.692a7.082,7.082,0,0,0,2.813-1.587c1.338-1.395,5.278-5.539,5.5-7.168a37.192,37.192,0,0,0-.64-8.286c-1.043-5.854-3.273-12-3.657-9.289-.558.65-.1,5.94-.454,6.724-1.367,1.575-2.02,2.222-3.732,4.1a19.641,19.641,0,0,1-2.276,1.376c-.591.16-.916-.252-.936-.771a24.657,24.657,0,0,1,.653-3.121c-.005-2.508-.623-3.93-1.964-3.8a1.326,1.326,0,0,0-1.259,1.173C7082.046,932.107,7082.083,932.917,7081.987,933.943Z" transform="translate(-6703.655 -573.423)"/>
  <path id="Path_197" data-name="Path 197" class="cls-61" d="M6926.372,991.769c7.954,1.227,23.3,9.975,33.889,14.72,5.9-8.417,13.653-18.5,18.434-21.9a15.891,15.891,0,0,0,2.378-1.706c.693-.85,1.371-1.722,2.023-2.623,2.987.415,7.314,4.145,7.257,5.907-.481.881-.971,1.8-1.468,2.751-.34.65-.216,2.075-.417,2.806-1.622,5.893-10.562,19.5-14.729,25.577-2.408,3.509-3.255,5.568-4.886,6.617-2.617,1.682-6.127.763-12.893-.938-5.693-1.431-24.073-4.775-32.531-9.238-5.963-3.146-10.539-8.815-8.17-15.341A10.273,10.273,0,0,1,6926.372,991.769Z" transform="translate(-6606.263 -606.684)"/>
</svg>
