<svg xmlns="http://www.w3.org/2000/svg" width="27.75" height="39.001" viewBox="0 0 27.75 39.001">
  <defs>
    <style>
      .cls-1 {
        fill: #fffa7c;
        stroke: #3e3e3e;
        stroke-width: 3px;
      }
    </style>
  </defs>
  <path id="Icon_awesome-lightbulb" data-name="Icon awesome-lightbulb" class="cls-1" d="M6.754,31.946a2.251,2.251,0,0,0,.377,1.244L8.333,35a2.249,2.249,0,0,0,1.873,1h4.339a2.249,2.249,0,0,0,1.873-1l1.2-1.806A2.249,2.249,0,0,0,18,31.946l.02-1.371H6.751l0,1.371ZM0,12.375a12.306,12.306,0,0,0,3.063,8.141,20.206,20.206,0,0,1,3.671,6.43c0,.018,0,.037.008.055H18.008c0-.018,0-.036.008-.055a20.206,20.206,0,0,1,3.671-6.43A12.372,12.372,0,1,0,0,12.375Z" transform="translate(1.5 1.5)"/>
</svg>
